<?xml version="1.0" encoding="UTF-8" ?>
<svg width="525" height="225" xmlns="http://www.w3.org/2000/svg">
<rect x="0" y="0" width="525" height="225" style="fill:#031A16" />
<rect x="30" y="30" width="45" height="45" style="fill:#031A16" />
<rect x="90" y="30" width="45" height="45" style="fill:#0B342D" />
<rect x="150" y="30" width="45" height="45" style="fill:#184E45" />
<rect x="210" y="30" width="45" height="45" style="fill:#2B685E" />
<rect x="270" y="30" width="45" height="45" style="fill:#5F9C92" />
<rect x="330" y="30" width="45" height="45" style="fill:#81B5AC" />
<rect x="390" y="30" width="45" height="45" style="fill:#A7CEC8" />
<rect x="450" y="30" width="45" height="45" style="fill:#D2E7E4" />
<rect x="30" y="90" width="45" height="45" style="fill:#3E9688" />
<rect x="90" y="90" width="45" height="45" style="fill:#3E7996" />
<rect x="150" y="90" width="45" height="45" style="fill:#3E4C96" />
<rect x="210" y="90" width="45" height="45" style="fill:#883E96" />
<rect x="270" y="90" width="45" height="45" style="fill:#963E4C" />
<rect x="330" y="90" width="45" height="45" style="fill:#96883E" />
<rect x="390" y="90" width="45" height="45" style="fill:#4C963E" />
<rect x="450" y="90" width="45" height="45" style="fill:#3E965B" />
<rect x="30" y="150" width="45" height="45" style="fill:#000e0a" />
<rect x="90" y="150" width="45" height="45" style="fill:#000603" />
<rect x="150" y="150" width="45" height="45" style="fill:#6cc1b2" />
<rect x="210" y="150" width="45" height="45" style="fill:#5868b2" />
<rect x="270" y="150" width="45" height="45" style="fill:#aa5eb8" />
<rect x="330" y="150" width="45" height="45" style="fill:#bc5c69" />
<rect x="390" y="150" width="45" height="45" style="fill:#c2b364" />
<rect x="450" y="150" width="45" height="45" style="fill:#74c163" />
</svg>