<?xml version="1.0" encoding="UTF-8" ?>
<svg width="525" height="225" xmlns="http://www.w3.org/2000/svg">
<rect x="0" y="0" width="525" height="225" style="fill:#1b1918" />
<rect x="30" y="30" width="45" height="45" style="fill:#1b1918" />
<rect x="90" y="30" width="45" height="45" style="fill:#2c2421" />
<rect x="150" y="30" width="45" height="45" style="fill:#68615e" />
<rect x="210" y="30" width="45" height="45" style="fill:#766e6b" />
<rect x="270" y="30" width="45" height="45" style="fill:#9c9491" />
<rect x="330" y="30" width="45" height="45" style="fill:#a8a19f" />
<rect x="390" y="30" width="45" height="45" style="fill:#e6e2e0" />
<rect x="450" y="30" width="45" height="45" style="fill:#f1efee" />
<rect x="30" y="90" width="45" height="45" style="fill:#f22c40" />
<rect x="90" y="90" width="45" height="45" style="fill:#df5320" />
<rect x="150" y="90" width="45" height="45" style="fill:#c38418" />
<rect x="210" y="90" width="45" height="45" style="fill:#7b9726" />
<rect x="270" y="90" width="45" height="45" style="fill:#3d97b8" />
<rect x="330" y="90" width="45" height="45" style="fill:#407ee7" />
<rect x="390" y="90" width="45" height="45" style="fill:#6666ea" />
<rect x="450" y="90" width="45" height="45" style="fill:#c33ff3" />
<rect x="30" y="150" width="45" height="45" style="fill:#0a0908" />
<rect x="90" y="150" width="45" height="45" style="fill:#020202" />
<rect x="150" y="150" width="45" height="45" style="fill:#ff656d" />
<rect x="210" y="150" width="45" height="45" style="fill:#ffbd4e" />
<rect x="270" y="150" width="45" height="45" style="fill:#b0cf58" />
<rect x="330" y="150" width="45" height="45" style="fill:#79cef0" />
<rect x="390" y="150" width="45" height="45" style="fill:#74b1ff" />
<rect x="450" y="150" width="45" height="45" style="fill:#9297ff" />
</svg>