<?xml version="1.0" encoding="UTF-8" ?>
<svg width="525" height="225" xmlns="http://www.w3.org/2000/svg">
<rect x="0" y="0" width="525" height="225" style="fill:#f5f7ff" />
<rect x="30" y="30" width="45" height="45" style="fill:#f5f7ff" />
<rect x="90" y="30" width="45" height="45" style="fill:#dfe2f1" />
<rect x="150" y="30" width="45" height="45" style="fill:#979db4" />
<rect x="210" y="30" width="45" height="45" style="fill:#898ea4" />
<rect x="270" y="30" width="45" height="45" style="fill:#6b7394" />
<rect x="330" y="30" width="45" height="45" style="fill:#5e6687" />
<rect x="390" y="30" width="45" height="45" style="fill:#293256" />
<rect x="450" y="30" width="45" height="45" style="fill:#202746" />
<rect x="30" y="90" width="45" height="45" style="fill:#c94922" />
<rect x="90" y="90" width="45" height="45" style="fill:#c76b29" />
<rect x="150" y="90" width="45" height="45" style="fill:#c08b30" />
<rect x="210" y="90" width="45" height="45" style="fill:#ac9739" />
<rect x="270" y="90" width="45" height="45" style="fill:#22a2c9" />
<rect x="330" y="90" width="45" height="45" style="fill:#3d8fd1" />
<rect x="390" y="90" width="45" height="45" style="fill:#6679cc" />
<rect x="450" y="90" width="45" height="45" style="fill:#9c637a" />
<rect x="30" y="150" width="45" height="45" style="fill:#898c93" />
<rect x="90" y="150" width="45" height="45" style="fill:#4a4d53" />
<rect x="150" y="150" width="45" height="45" style="fill:#ff774a" />
<rect x="210" y="150" width="45" height="45" style="fill:#ffc563" />
<rect x="270" y="150" width="45" height="45" style="fill:#ead36d" />
<rect x="330" y="150" width="45" height="45" style="fill:#6fdcff" />
<rect x="390" y="150" width="45" height="45" style="fill:#77c5ff" />
<rect x="450" y="150" width="45" height="45" style="fill:#96abff" />
</svg>