<?xml version="1.0" encoding="UTF-8" ?>
<svg width="525" height="225" xmlns="http://www.w3.org/2000/svg">
<rect x="0" y="0" width="525" height="225" style="fill:#ecf4ee" />
<rect x="30" y="30" width="45" height="45" style="fill:#ecf4ee" />
<rect x="90" y="30" width="45" height="45" style="fill:#dfe7e2" />
<rect x="150" y="30" width="45" height="45" style="fill:#87928a" />
<rect x="210" y="30" width="45" height="45" style="fill:#78877d" />
<rect x="270" y="30" width="45" height="45" style="fill:#5f6d64" />
<rect x="330" y="30" width="45" height="45" style="fill:#526057" />
<rect x="390" y="30" width="45" height="45" style="fill:#232a25" />
<rect x="450" y="30" width="45" height="45" style="fill:#171c19" />
<rect x="30" y="90" width="45" height="45" style="fill:#b16139" />
<rect x="90" y="90" width="45" height="45" style="fill:#9f713c" />
<rect x="150" y="90" width="45" height="45" style="fill:#a07e3b" />
<rect x="210" y="90" width="45" height="45" style="fill:#489963" />
<rect x="270" y="90" width="45" height="45" style="fill:#1c9aa0" />
<rect x="330" y="90" width="45" height="45" style="fill:#478c90" />
<rect x="390" y="90" width="45" height="45" style="fill:#55859b" />
<rect x="450" y="90" width="45" height="45" style="fill:#867469" />
<rect x="30" y="150" width="45" height="45" style="fill:#99a19c" />
<rect x="90" y="150" width="45" height="45" style="fill:#616965" />
<rect x="150" y="150" width="45" height="45" style="fill:#df865b" />
<rect x="210" y="150" width="45" height="45" style="fill:#cda860" />
<rect x="270" y="150" width="45" height="45" style="fill:#73c58b" />
<rect x="330" y="150" width="45" height="45" style="fill:#59c6cc" />
<rect x="390" y="150" width="45" height="45" style="fill:#71b5b9" />
<rect x="450" y="150" width="45" height="45" style="fill:#7dadc4" />
</svg>