<?xml version="1.0" encoding="UTF-8" ?>
<svg width="525" height="225" xmlns="http://www.w3.org/2000/svg">
<rect x="0" y="0" width="525" height="225" style="fill:#19171c" />
<rect x="30" y="30" width="45" height="45" style="fill:#19171c" />
<rect x="90" y="30" width="45" height="45" style="fill:#26232a" />
<rect x="150" y="30" width="45" height="45" style="fill:#585260" />
<rect x="210" y="30" width="45" height="45" style="fill:#655f6d" />
<rect x="270" y="30" width="45" height="45" style="fill:#7e7887" />
<rect x="330" y="30" width="45" height="45" style="fill:#8b8792" />
<rect x="390" y="30" width="45" height="45" style="fill:#e2dfe7" />
<rect x="450" y="30" width="45" height="45" style="fill:#efecf4" />
<rect x="30" y="90" width="45" height="45" style="fill:#be4678" />
<rect x="90" y="90" width="45" height="45" style="fill:#aa573c" />
<rect x="150" y="90" width="45" height="45" style="fill:#a06e3b" />
<rect x="210" y="90" width="45" height="45" style="fill:#2a9292" />
<rect x="270" y="90" width="45" height="45" style="fill:#398bc6" />
<rect x="330" y="90" width="45" height="45" style="fill:#576ddb" />
<rect x="390" y="90" width="45" height="45" style="fill:#955ae7" />
<rect x="450" y="90" width="45" height="45" style="fill:#bf40bf" />
<rect x="30" y="150" width="45" height="45" style="fill:#0c0b0f" />
<rect x="90" y="150" width="45" height="45" style="fill:#040407" />
<rect x="150" y="150" width="45" height="45" style="fill:#ed6b9e" />
<rect x="210" y="150" width="45" height="45" style="fill:#cc945d" />
<rect x="270" y="150" width="45" height="45" style="fill:#5cbcbc" />
<rect x="330" y="150" width="45" height="45" style="fill:#68b5f2" />
<rect x="390" y="150" width="45" height="45" style="fill:#7b94ff" />
<rect x="450" y="150" width="45" height="45" style="fill:#bc84ff" />
</svg>