<?xml version="1.0" encoding="UTF-8" ?>
<svg width="525" height="225" xmlns="http://www.w3.org/2000/svg">
<rect x="0" y="0" width="525" height="225" style="fill:#ebf8ff" />
<rect x="30" y="30" width="45" height="45" style="fill:#ebf8ff" />
<rect x="90" y="30" width="45" height="45" style="fill:#c1e4f6" />
<rect x="150" y="30" width="45" height="45" style="fill:#7ea2b4" />
<rect x="210" y="30" width="45" height="45" style="fill:#7195a8" />
<rect x="270" y="30" width="45" height="45" style="fill:#5a7b8c" />
<rect x="330" y="30" width="45" height="45" style="fill:#516d7b" />
<rect x="390" y="30" width="45" height="45" style="fill:#1f292e" />
<rect x="450" y="30" width="45" height="45" style="fill:#161b1d" />
<rect x="30" y="90" width="45" height="45" style="fill:#d22d72" />
<rect x="90" y="90" width="45" height="45" style="fill:#935c25" />
<rect x="150" y="90" width="45" height="45" style="fill:#8a8a0f" />
<rect x="210" y="90" width="45" height="45" style="fill:#568c3b" />
<rect x="270" y="90" width="45" height="45" style="fill:#2d8f6f" />
<rect x="330" y="90" width="45" height="45" style="fill:#257fad" />
<rect x="390" y="90" width="45" height="45" style="fill:#6b6bb8" />
<rect x="450" y="90" width="45" height="45" style="fill:#b72dd2" />
<rect x="30" y="150" width="45" height="45" style="fill:#f4ffff" />
<rect x="90" y="150" width="45" height="45" style="fill:#f6ffff" />
<rect x="150" y="150" width="45" height="45" style="fill:#ff60a1" />
<rect x="210" y="150" width="45" height="45" style="fill:#bfc044" />
<rect x="270" y="150" width="45" height="45" style="fill:#85bf67" />
<rect x="330" y="150" width="45" height="45" style="fill:#65c29f" />
<rect x="390" y="150" width="45" height="45" style="fill:#5eaede" />
<rect x="450" y="150" width="45" height="45" style="fill:#9899e9" />
</svg>