<?xml version="1.0" encoding="UTF-8" ?>
<svg width="525" height="225" xmlns="http://www.w3.org/2000/svg">
<rect x="0" y="0" width="525" height="225" style="fill:#002635" />
<rect x="30" y="30" width="45" height="45" style="fill:#002635" />
<rect x="90" y="30" width="45" height="45" style="fill:#00384d" />
<rect x="150" y="30" width="45" height="45" style="fill:#517F8D" />
<rect x="210" y="30" width="45" height="45" style="fill:#6C8B91" />
<rect x="270" y="30" width="45" height="45" style="fill:#869696" />
<rect x="330" y="30" width="45" height="45" style="fill:#a1a19a" />
<rect x="390" y="30" width="45" height="45" style="fill:#e6e6dc" />
<rect x="450" y="30" width="45" height="45" style="fill:#fafaf8" />
<rect x="30" y="90" width="45" height="45" style="fill:#ff5a67" />
<rect x="90" y="90" width="45" height="45" style="fill:#f08e48" />
<rect x="150" y="90" width="45" height="45" style="fill:#ffcc1b" />
<rect x="210" y="90" width="45" height="45" style="fill:#7fc06e" />
<rect x="270" y="90" width="45" height="45" style="fill:#5dd7b9" />
<rect x="330" y="90" width="45" height="45" style="fill:#14747e" />
<rect x="390" y="90" width="45" height="45" style="fill:#9a70a4" />
<rect x="450" y="90" width="45" height="45" style="fill:#c43060" />
<rect x="30" y="150" width="45" height="45" style="fill:#001221" />
<rect x="90" y="150" width="45" height="45" style="fill:#000615" />
<rect x="150" y="150" width="45" height="45" style="fill:#ff949e" />
<rect x="210" y="150" width="45" height="45" style="fill:#fff649" />
<rect x="270" y="150" width="45" height="45" style="fill:#c0ffab" />
<rect x="330" y="150" width="45" height="45" style="fill:#a2fff9" />
<rect x="390" y="150" width="45" height="45" style="fill:#4c9ea8" />
<rect x="450" y="150" width="45" height="45" style="fill:#cfa2d9" />
</svg>