<?xml version="1.0" encoding="UTF-8" ?>
<svg width="525" height="225" xmlns="http://www.w3.org/2000/svg">
<rect x="0" y="0" width="525" height="225" style="fill:#171B24" />
<rect x="30" y="30" width="45" height="45" style="fill:#171B24" />
<rect x="90" y="30" width="45" height="45" style="fill:#1F2430" />
<rect x="150" y="30" width="45" height="45" style="fill:#242936" />
<rect x="210" y="30" width="45" height="45" style="fill:#707A8C" />
<rect x="270" y="30" width="45" height="45" style="fill:#8A9199" />
<rect x="330" y="30" width="45" height="45" style="fill:#CCCAC2" />
<rect x="390" y="30" width="45" height="45" style="fill:#D9D7CE" />
<rect x="450" y="30" width="45" height="45" style="fill:#F3F4F5" />
<rect x="30" y="90" width="45" height="45" style="fill:#F28779" />
<rect x="90" y="90" width="45" height="45" style="fill:#FFAD66" />
<rect x="150" y="90" width="45" height="45" style="fill:#FFD173" />
<rect x="210" y="90" width="45" height="45" style="fill:#D5FF80" />
<rect x="270" y="90" width="45" height="45" style="fill:#95E6CB" />
<rect x="330" y="90" width="45" height="45" style="fill:#5CCFE6" />
<rect x="390" y="90" width="45" height="45" style="fill:#D4BFFF" />
<rect x="450" y="90" width="45" height="45" style="fill:#F29E74" />
<rect x="30" y="150" width="45" height="45" style="fill:#0a0e16" />
<rect x="90" y="150" width="45" height="45" style="fill:#03050d" />
<rect x="150" y="150" width="45" height="45" style="fill:#ffbaaa" />
<rect x="210" y="150" width="45" height="45" style="fill:#fff693" />
<rect x="270" y="150" width="45" height="45" style="fill:#e5ff8f" />
<rect x="330" y="150" width="45" height="45" style="fill:#c1fff6" />
<rect x="390" y="150" width="45" height="45" style="fill:#9cffff" />
<rect x="450" y="150" width="45" height="45" style="fill:#fff3ff" />
</svg>