<?xml version="1.0" encoding="UTF-8" ?>
<svg width="525" height="225" xmlns="http://www.w3.org/2000/svg">
<rect x="0" y="0" width="525" height="225" style="fill:#000000" />
<rect x="30" y="30" width="45" height="45" style="fill:#000000" />
<rect x="90" y="30" width="45" height="45" style="fill:#121212" />
<rect x="150" y="30" width="45" height="45" style="fill:#222222" />
<rect x="210" y="30" width="45" height="45" style="fill:#333333" />
<rect x="270" y="30" width="45" height="45" style="fill:#999999" />
<rect x="330" y="30" width="45" height="45" style="fill:#c1c1c1" />
<rect x="390" y="30" width="45" height="45" style="fill:#999999" />
<rect x="450" y="30" width="45" height="45" style="fill:#c1c1c1" />
<rect x="30" y="90" width="45" height="45" style="fill:#5f8787" />
<rect x="90" y="90" width="45" height="45" style="fill:#aaaaaa" />
<rect x="150" y="90" width="45" height="45" style="fill:#626b67" />
<rect x="210" y="90" width="45" height="45" style="fill:#a5aaa7" />
<rect x="270" y="90" width="45" height="45" style="fill:#aaaaaa" />
<rect x="330" y="90" width="45" height="45" style="fill:#888888" />
<rect x="390" y="90" width="45" height="45" style="fill:#999999" />
<rect x="450" y="90" width="45" height="45" style="fill:#444444" />
<rect x="30" y="150" width="45" height="45" style="fill:#000000" />
<rect x="90" y="150" width="45" height="45" style="fill:#000000" />
<rect x="150" y="150" width="45" height="45" style="fill:#87b0af" />
<rect x="210" y="150" width="45" height="45" style="fill:#848d88" />
<rect x="270" y="150" width="45" height="45" style="fill:#dadedb" />
<rect x="330" y="150" width="45" height="45" style="fill:#e0dfdf" />
<rect x="390" y="150" width="45" height="45" style="fill:#b3b3b3" />
<rect x="450" y="150" width="45" height="45" style="fill:#c9c9c9" />
</svg>