<?xml version="1.0" encoding="UTF-8" ?>
<svg width="525" height="225" xmlns="http://www.w3.org/2000/svg">
<rect x="0" y="0" width="525" height="225" style="fill:#182430" />
<rect x="30" y="30" width="45" height="45" style="fill:#182430" />
<rect x="90" y="30" width="45" height="45" style="fill:#243C54" />
<rect x="150" y="30" width="45" height="45" style="fill:#46290A" />
<rect x="210" y="30" width="45" height="45" style="fill:#616D78" />
<rect x="270" y="30" width="45" height="45" style="fill:#74AFE7" />
<rect x="330" y="30" width="45" height="45" style="fill:#C8E1F8" />
<rect x="390" y="30" width="45" height="45" style="fill:#DDEAF6" />
<rect x="450" y="30" width="45" height="45" style="fill:#8F98A0" />
<rect x="30" y="90" width="45" height="45" style="fill:#4CE587" />
<rect x="90" y="90" width="45" height="45" style="fill:#F6A85C" />
<rect x="150" y="90" width="45" height="45" style="fill:#82AAFF" />
<rect x="210" y="90" width="45" height="45" style="fill:#C3E88D" />
<rect x="270" y="90" width="45" height="45" style="fill:#5FD1FF" />
<rect x="330" y="90" width="45" height="45" style="fill:#82AAFF" />
<rect x="390" y="90" width="45" height="45" style="fill:#FF84DD" />
<rect x="450" y="90" width="45" height="45" style="fill:#BBD2E8" />
<rect x="30" y="150" width="45" height="45" style="fill:#04101b" />
<rect x="90" y="150" width="45" height="45" style="fill:#00050f" />
<rect x="150" y="150" width="45" height="45" style="fill:#8dffbc" />
<rect x="210" y="150" width="45" height="45" style="fill:#c2ecff" />
<rect x="270" y="150" width="45" height="45" style="fill:#e7ffae" />
<rect x="330" y="150" width="45" height="45" style="fill:#a4ffff" />
<rect x="390" y="150" width="45" height="45" style="fill:#c2ecff" />
<rect x="450" y="150" width="45" height="45" style="fill:#ffc8ff" />
</svg>