<?xml version="1.0" encoding="UTF-8" ?>
<svg width="525" height="225" xmlns="http://www.w3.org/2000/svg">
<rect x="0" y="0" width="525" height="225" style="fill:#0c0d0e" />
<rect x="30" y="30" width="45" height="45" style="fill:#0c0d0e" />
<rect x="90" y="30" width="45" height="45" style="fill:#2e2f30" />
<rect x="150" y="30" width="45" height="45" style="fill:#515253" />
<rect x="210" y="30" width="45" height="45" style="fill:#737475" />
<rect x="270" y="30" width="45" height="45" style="fill:#959697" />
<rect x="330" y="30" width="45" height="45" style="fill:#b7b8b9" />
<rect x="390" y="30" width="45" height="45" style="fill:#dadbdc" />
<rect x="450" y="30" width="45" height="45" style="fill:#fcfdfe" />
<rect x="30" y="90" width="45" height="45" style="fill:#e31a1c" />
<rect x="90" y="90" width="45" height="45" style="fill:#e6550d" />
<rect x="150" y="90" width="45" height="45" style="fill:#dca060" />
<rect x="210" y="90" width="45" height="45" style="fill:#31a354" />
<rect x="270" y="90" width="45" height="45" style="fill:#80b1d3" />
<rect x="330" y="90" width="45" height="45" style="fill:#3182bd" />
<rect x="390" y="90" width="45" height="45" style="fill:#756bb1" />
<rect x="450" y="90" width="45" height="45" style="fill:#b15928" />
<rect x="30" y="150" width="45" height="45" style="fill:#040506" />
<rect x="90" y="150" width="45" height="45" style="fill:#010202" />
<rect x="150" y="150" width="45" height="45" style="fill:#ff493c" />
<rect x="210" y="150" width="45" height="45" style="fill:#ffd590" />
<rect x="270" y="150" width="45" height="45" style="fill:#63d17c" />
<rect x="330" y="150" width="45" height="45" style="fill:#b4e6ff" />
<rect x="390" y="150" width="45" height="45" style="fill:#5ea9e6" />
<rect x="450" y="150" width="45" height="45" style="fill:#9a90d9" />
</svg>