<?xml version="1.0" encoding="UTF-8" ?>
<svg width="525" height="225" xmlns="http://www.w3.org/2000/svg">
<rect x="0" y="0" width="525" height="225" style="fill:#000000" />
<rect x="30" y="30" width="45" height="45" style="fill:#000000" />
<rect x="90" y="30" width="45" height="45" style="fill:#303030" />
<rect x="150" y="30" width="45" height="45" style="fill:#505050" />
<rect x="210" y="30" width="45" height="45" style="fill:#b0b0b0" />
<rect x="270" y="30" width="45" height="45" style="fill:#d0d0d0" />
<rect x="330" y="30" width="45" height="45" style="fill:#e0e0e0" />
<rect x="390" y="30" width="45" height="45" style="fill:#f5f5f5" />
<rect x="450" y="30" width="45" height="45" style="fill:#ffffff" />
<rect x="30" y="90" width="45" height="45" style="fill:#fb0120" />
<rect x="90" y="90" width="45" height="45" style="fill:#fc6d24" />
<rect x="150" y="90" width="45" height="45" style="fill:#fda331" />
<rect x="210" y="90" width="45" height="45" style="fill:#a1c659" />
<rect x="270" y="90" width="45" height="45" style="fill:#76c7b7" />
<rect x="330" y="90" width="45" height="45" style="fill:#6fb3d2" />
<rect x="390" y="90" width="45" height="45" style="fill:#d381c3" />
<rect x="450" y="90" width="45" height="45" style="fill:#be643c" />
<rect x="30" y="150" width="45" height="45" style="fill:#000000" />
<rect x="90" y="150" width="45" height="45" style="fill:#000000" />
<rect x="150" y="150" width="45" height="45" style="fill:#ff514b" />
<rect x="210" y="150" width="45" height="45" style="fill:#ffe46c" />
<rect x="270" y="150" width="45" height="45" style="fill:#e6ff98" />
<rect x="330" y="150" width="45" height="45" style="fill:#bcfffd" />
<rect x="390" y="150" width="45" height="45" style="fill:#b0f5ff" />
<rect x="450" y="150" width="45" height="45" style="fill:#ffbeff" />
</svg>