<?xml version="1.0" encoding="UTF-8" ?>
<svg width="525" height="225" xmlns="http://www.w3.org/2000/svg">
<rect x="0" y="0" width="525" height="225" style="fill:#485867" />
<rect x="30" y="30" width="45" height="45" style="fill:#485867" />
<rect x="90" y="30" width="45" height="45" style="fill:#5A6D7A" />
<rect x="150" y="30" width="45" height="45" style="fill:#6D828E" />
<rect x="210" y="30" width="45" height="45" style="fill:#8299A1" />
<rect x="270" y="30" width="45" height="45" style="fill:#98AFB5" />
<rect x="330" y="30" width="45" height="45" style="fill:#B0C5C8" />
<rect x="390" y="30" width="45" height="45" style="fill:#C9DBDC" />
<rect x="450" y="30" width="45" height="45" style="fill:#E3EFEF" />
<rect x="30" y="90" width="45" height="45" style="fill:#b38686" />
<rect x="90" y="90" width="45" height="45" style="fill:#d8bba2" />
<rect x="150" y="90" width="45" height="45" style="fill:#aab386" />
<rect x="210" y="90" width="45" height="45" style="fill:#87b386" />
<rect x="270" y="90" width="45" height="45" style="fill:#86b3b3" />
<rect x="330" y="90" width="45" height="45" style="fill:#868cb3" />
<rect x="390" y="90" width="45" height="45" style="fill:#b386b2" />
<rect x="450" y="90" width="45" height="45" style="fill:#b39f9f" />
<rect x="30" y="150" width="45" height="45" style="fill:#283846" />
<rect x="90" y="150" width="45" height="45" style="fill:#12222f" />
<rect x="150" y="150" width="45" height="45" style="fill:#e5b3b3" />
<rect x="210" y="150" width="45" height="45" style="fill:#e0eab9" />
<rect x="270" y="150" width="45" height="45" style="fill:#bae8b7" />
<rect x="330" y="150" width="45" height="45" style="fill:#bae8e8" />
<rect x="390" y="150" width="45" height="45" style="fill:#b3b9e2" />
<rect x="450" y="150" width="45" height="45" style="fill:#e5b4e3" />
</svg>