<?xml version="1.0" encoding="UTF-8" ?>
<svg width="525" height="225" xmlns="http://www.w3.org/2000/svg">
<rect x="0" y="0" width="525" height="225" style="fill:#1c1213" />
<rect x="30" y="30" width="45" height="45" style="fill:#1c1213" />
<rect x="90" y="30" width="45" height="45" style="fill:#3a2425" />
<rect x="150" y="30" width="45" height="45" style="fill:#563837" />
<rect x="210" y="30" width="45" height="45" style="fill:#6d4745" />
<rect x="270" y="30" width="45" height="45" style="fill:#8b5d57" />
<rect x="330" y="30" width="45" height="45" style="fill:#a87569" />
<rect x="390" y="30" width="45" height="45" style="fill:#c58d7b" />
<rect x="450" y="30" width="45" height="45" style="fill:#e3a68c" />
<rect x="30" y="90" width="45" height="45" style="fill:#c24f57" />
<rect x="90" y="90" width="45" height="45" style="fill:#a63650" />
<rect x="150" y="90" width="45" height="45" style="fill:#f28171" />
<rect x="210" y="90" width="45" height="45" style="fill:#806c61" />
<rect x="270" y="90" width="45" height="45" style="fill:#6b6566" />
<rect x="330" y="90" width="45" height="45" style="fill:#684c59" />
<rect x="390" y="90" width="45" height="45" style="fill:#a63650" />
<rect x="450" y="90" width="45" height="45" style="fill:#893f45" />
<rect x="30" y="150" width="45" height="45" style="fill:#100708" />
<rect x="90" y="150" width="45" height="45" style="fill:#070202" />
<rect x="150" y="150" width="45" height="45" style="fill:#f3747b" />
<rect x="210" y="150" width="45" height="45" style="fill:#ffb3a0" />
<rect x="270" y="150" width="45" height="45" style="fill:#a69084" />
<rect x="330" y="150" width="45" height="45" style="fill:#8d8687" />
<rect x="390" y="150" width="45" height="45" style="fill:#866875" />
<rect x="450" y="150" width="45" height="45" style="fill:#cf566f" />
</svg>