<?xml version="1.0" encoding="UTF-8" ?>
<svg width="525" height="225" xmlns="http://www.w3.org/2000/svg">
<rect x="0" y="0" width="525" height="225" style="fill:#232c31" />
<rect x="30" y="30" width="45" height="45" style="fill:#232c31" />
<rect x="90" y="30" width="45" height="45" style="fill:#1c3657" />
<rect x="150" y="30" width="45" height="45" style="fill:#2a343a" />
<rect x="210" y="30" width="45" height="45" style="fill:#3f4944" />
<rect x="270" y="30" width="45" height="45" style="fill:#84898c" />
<rect x="330" y="30" width="45" height="45" style="fill:#9ea7a6" />
<rect x="390" y="30" width="45" height="45" style="fill:#a7cfa3" />
<rect x="450" y="30" width="45" height="45" style="fill:#b5d8f6" />
<rect x="30" y="90" width="45" height="45" style="fill:#2a5491" />
<rect x="90" y="90" width="45" height="45" style="fill:#43820d" />
<rect x="150" y="90" width="45" height="45" style="fill:#a03b1e" />
<rect x="210" y="90" width="45" height="45" style="fill:#237986" />
<rect x="270" y="90" width="45" height="45" style="fill:#b02f30" />
<rect x="330" y="90" width="45" height="45" style="fill:#484d79" />
<rect x="390" y="90" width="45" height="45" style="fill:#c59820" />
<rect x="450" y="90" width="45" height="45" style="fill:#c98344" />
<rect x="30" y="150" width="45" height="45" style="fill:#111a1e" />
<rect x="90" y="150" width="45" height="45" style="fill:#050d11" />
<rect x="150" y="150" width="45" height="45" style="fill:#4770ae" />
<rect x="210" y="150" width="45" height="45" style="fill:#c95939" />
<rect x="270" y="150" width="45" height="45" style="fill:#4e9caa" />
<rect x="330" y="150" width="45" height="45" style="fill:#dc4f4c" />
<rect x="390" y="150" width="45" height="45" style="fill:#626895" />
<rect x="450" y="150" width="45" height="45" style="fill:#fbca4f" />
</svg>