<?xml version="1.0" encoding="UTF-8" ?>
<svg width="525" height="225" xmlns="http://www.w3.org/2000/svg">
<rect x="0" y="0" width="525" height="225" style="fill:#ffffff" />
<rect x="30" y="30" width="45" height="45" style="fill:#ffffff" />
<rect x="90" y="30" width="45" height="45" style="fill:#c0c0c0" />
<rect x="150" y="30" width="45" height="45" style="fill:#c0c0c0" />
<rect x="210" y="30" width="45" height="45" style="fill:#808080" />
<rect x="270" y="30" width="45" height="45" style="fill:#808080" />
<rect x="330" y="30" width="45" height="45" style="fill:#404040" />
<rect x="390" y="30" width="45" height="45" style="fill:#404040" />
<rect x="450" y="30" width="45" height="45" style="fill:#5e5e5e" />
<rect x="30" y="90" width="45" height="45" style="fill:#c41a15" />
<rect x="90" y="90" width="45" height="45" style="fill:#eb8500" />
<rect x="150" y="90" width="45" height="45" style="fill:#826b28" />
<rect x="210" y="90" width="45" height="45" style="fill:#007400" />
<rect x="270" y="90" width="45" height="45" style="fill:#318495" />
<rect x="330" y="90" width="45" height="45" style="fill:#0000ff" />
<rect x="390" y="90" width="45" height="45" style="fill:#a90d91" />
<rect x="450" y="90" width="45" height="45" style="fill:#826b28" />
<rect x="30" y="150" width="45" height="45" style="fill:#a7a8a8" />
<rect x="90" y="150" width="45" height="45" style="fill:#6c6d6e" />
<rect x="150" y="150" width="45" height="45" style="fill:#f44131" />
<rect x="210" y="150" width="45" height="45" style="fill:#a88e47" />
<rect x="270" y="150" width="45" height="45" style="fill:#319625" />
<rect x="330" y="150" width="45" height="45" style="fill:#5dabbc" />
<rect x="390" y="150" width="45" height="45" style="fill:#0045ff" />
<rect x="450" y="150" width="45" height="45" style="fill:#d13db3" />
</svg>