<?xml version="1.0" encoding="UTF-8" ?>
<svg width="525" height="225" xmlns="http://www.w3.org/2000/svg">
<rect x="0" y="0" width="525" height="225" style="fill:#171726" />
<rect x="30" y="30" width="45" height="45" style="fill:#171726" />
<rect x="90" y="30" width="45" height="45" style="fill:#22273d" />
<rect x="150" y="30" width="45" height="45" style="fill:#525866" />
<rect x="210" y="30" width="45" height="45" style="fill:#878d96" />
<rect x="270" y="30" width="45" height="45" style="fill:#c8c8c8" />
<rect x="330" y="30" width="45" height="45" style="fill:#ffffff" />
<rect x="390" y="30" width="45" height="45" style="fill:#ffffff" />
<rect x="450" y="30" width="45" height="45" style="fill:#ffffff" />
<rect x="30" y="90" width="45" height="45" style="fill:#fa7883" />
<rect x="90" y="90" width="45" height="45" style="fill:#ffc387" />
<rect x="150" y="90" width="45" height="45" style="fill:#ff9470" />
<rect x="210" y="90" width="45" height="45" style="fill:#98c379" />
<rect x="270" y="90" width="45" height="45" style="fill:#8af5ff" />
<rect x="330" y="90" width="45" height="45" style="fill:#6bb8ff" />
<rect x="390" y="90" width="45" height="45" style="fill:#e799ff" />
<rect x="450" y="90" width="45" height="45" style="fill:#b3684f" />
<rect x="30" y="150" width="45" height="45" style="fill:#070716" />
<rect x="90" y="150" width="45" height="45" style="fill:#02010d" />
<rect x="150" y="150" width="45" height="45" style="fill:#ffb6c0" />
<rect x="210" y="150" width="45" height="45" style="fill:#ffd7af" />
<rect x="270" y="150" width="45" height="45" style="fill:#dcffb9" />
<rect x="330" y="150" width="45" height="45" style="fill:#aaffff" />
<rect x="390" y="150" width="45" height="45" style="fill:#b0fdff" />
<rect x="450" y="150" width="45" height="45" style="fill:#ffddff" />
</svg>