<?xml version="1.0" encoding="UTF-8" ?>
<svg width="525" height="225" xmlns="http://www.w3.org/2000/svg">
<rect x="0" y="0" width="525" height="225" style="fill:#faf0dc" />
<rect x="30" y="30" width="45" height="45" style="fill:#faf0dc" />
<rect x="90" y="30" width="45" height="45" style="fill:#c8c8c8" />
<rect x="150" y="30" width="45" height="45" style="fill:#888888" />
<rect x="210" y="30" width="45" height="45" style="fill:#585858" />
<rect x="270" y="30" width="45" height="45" style="fill:#282828" />
<rect x="330" y="30" width="45" height="45" style="fill:#181818" />
<rect x="390" y="30" width="45" height="45" style="fill:#000000" />
<rect x="450" y="30" width="45" height="45" style="fill:#000000" />
<rect x="30" y="90" width="45" height="45" style="fill:#de5d6e" />
<rect x="90" y="90" width="45" height="45" style="fill:#ff9470" />
<rect x="150" y="90" width="45" height="45" style="fill:#b3684f" />
<rect x="210" y="90" width="45" height="45" style="fill:#76a85d" />
<rect x="270" y="90" width="45" height="45" style="fill:#64b5a7" />
<rect x="330" y="90" width="45" height="45" style="fill:#5890f8" />
<rect x="390" y="90" width="45" height="45" style="fill:#c173d1" />
<rect x="450" y="90" width="45" height="45" style="fill:#b3684f" />
<rect x="30" y="150" width="45" height="45" style="fill:#a69e8c" />
<rect x="90" y="150" width="45" height="45" style="fill:#6d6656" />
<rect x="150" y="150" width="45" height="45" style="fill:#ff8898" />
<rect x="210" y="150" width="45" height="45" style="fill:#e28f73" />
<rect x="270" y="150" width="45" height="45" style="fill:#a4d988" />
<rect x="330" y="150" width="45" height="45" style="fill:#98e9da" />
<rect x="390" y="150" width="45" height="45" style="fill:#86beff" />
<rect x="450" y="150" width="45" height="45" style="fill:#f3a1ff" />
</svg>