<?xml version="1.0" encoding="UTF-8" ?>
<svg width="525" height="225" xmlns="http://www.w3.org/2000/svg">
<rect x="0" y="0" width="525" height="225" style="fill:#2d302f" />
<rect x="30" y="30" width="45" height="45" style="fill:#2d302f" />
<rect x="90" y="30" width="45" height="45" style="fill:#434846" />
<rect x="150" y="30" width="45" height="45" style="fill:#5a605d" />
<rect x="210" y="30" width="45" height="45" style="fill:#9da8a3" />
<rect x="270" y="30" width="45" height="45" style="fill:#cad8d2" />
<rect x="330" y="30" width="45" height="45" style="fill:#e0f0eF" />
<rect x="390" y="30" width="45" height="45" style="fill:#ecf6f2" />
<rect x="450" y="30" width="45" height="45" style="fill:#fcfefd" />
<rect x="30" y="90" width="45" height="45" style="fill:#F9906F" />
<rect x="90" y="90" width="45" height="45" style="fill:#B38A61" />
<rect x="150" y="90" width="45" height="45" style="fill:#F0C239" />
<rect x="210" y="90" width="45" height="45" style="fill:#8AB361" />
<rect x="270" y="90" width="45" height="45" style="fill:#30DFF3" />
<rect x="330" y="90" width="45" height="45" style="fill:#B0A4E3" />
<rect x="390" y="90" width="45" height="45" style="fill:#CCA4E3" />
<rect x="450" y="90" width="45" height="45" style="fill:#CA6924" />
<rect x="30" y="150" width="45" height="45" style="fill:#141716" />
<rect x="90" y="150" width="45" height="45" style="fill:#050807" />
<rect x="150" y="150" width="45" height="45" style="fill:#ffd2ac" />
<rect x="210" y="150" width="45" height="45" style="fill:#fff768" />
<rect x="270" y="150" width="45" height="45" style="fill:#c8f59b" />
<rect x="330" y="150" width="45" height="45" style="fill:#81ffff" />
<rect x="390" y="150" width="45" height="45" style="fill:#f3e6ff" />
<rect x="450" y="150" width="45" height="45" style="fill:#ffe9ff" />
</svg>