<?xml version="1.0" encoding="UTF-8" ?>
<svg width="525" height="225" xmlns="http://www.w3.org/2000/svg">
<rect x="0" y="0" width="525" height="225" style="fill:#2d2d2d" />
<rect x="30" y="30" width="45" height="45" style="fill:#2d2d2d" />
<rect x="90" y="30" width="45" height="45" style="fill:#393939" />
<rect x="150" y="30" width="45" height="45" style="fill:#515151" />
<rect x="210" y="30" width="45" height="45" style="fill:#777777" />
<rect x="270" y="30" width="45" height="45" style="fill:#b4b7b4" />
<rect x="330" y="30" width="45" height="45" style="fill:#cccccc" />
<rect x="390" y="30" width="45" height="45" style="fill:#e0e0e0" />
<rect x="450" y="30" width="45" height="45" style="fill:#ffffff" />
<rect x="30" y="90" width="45" height="45" style="fill:#ff7f7b" />
<rect x="90" y="90" width="45" height="45" style="fill:#ffbf70" />
<rect x="150" y="90" width="45" height="45" style="fill:#ffd67c" />
<rect x="210" y="90" width="45" height="45" style="fill:#beda78" />
<rect x="270" y="90" width="45" height="45" style="fill:#bed6ff" />
<rect x="330" y="90" width="45" height="45" style="fill:#90bee1" />
<rect x="390" y="90" width="45" height="45" style="fill:#efb3f7" />
<rect x="450" y="90" width="45" height="45" style="fill:#ff93b3" />
<rect x="30" y="150" width="45" height="45" style="fill:#1a1a1a" />
<rect x="90" y="150" width="45" height="45" style="fill:#0d0d0d" />
<rect x="150" y="150" width="45" height="45" style="fill:#ffb2ac" />
<rect x="210" y="150" width="45" height="45" style="fill:#fff799" />
<rect x="270" y="150" width="45" height="45" style="fill:#eeffa4" />
<rect x="330" y="150" width="45" height="45" style="fill:#e9ffff" />
<rect x="390" y="150" width="45" height="45" style="fill:#c8f7ff" />
<rect x="450" y="150" width="45" height="45" style="fill:#ffe6ff" />
</svg>