<?xml version="1.0" encoding="UTF-8" ?>
<svg width="525" height="225" xmlns="http://www.w3.org/2000/svg">
<rect x="0" y="0" width="525" height="225" style="fill:#282a36" />
<rect x="30" y="30" width="45" height="45" style="fill:#282a36" />
<rect x="90" y="30" width="45" height="45" style="fill:#363447" />
<rect x="150" y="30" width="45" height="45" style="fill:#44475a" />
<rect x="210" y="30" width="45" height="45" style="fill:#6272a4" />
<rect x="270" y="30" width="45" height="45" style="fill:#9ea8c7" />
<rect x="330" y="30" width="45" height="45" style="fill:#f8f8f2" />
<rect x="390" y="30" width="45" height="45" style="fill:#f0f1f4" />
<rect x="450" y="30" width="45" height="45" style="fill:#ffffff" />
<rect x="30" y="90" width="45" height="45" style="fill:#ff5555" />
<rect x="90" y="90" width="45" height="45" style="fill:#ffb86c" />
<rect x="150" y="90" width="45" height="45" style="fill:#f1fa8c" />
<rect x="210" y="90" width="45" height="45" style="fill:#50fa7b" />
<rect x="270" y="90" width="45" height="45" style="fill:#8be9fd" />
<rect x="330" y="90" width="45" height="45" style="fill:#80bfff" />
<rect x="390" y="90" width="45" height="45" style="fill:#ff79c6" />
<rect x="450" y="90" width="45" height="45" style="fill:#bd93f9" />
<rect x="30" y="150" width="45" height="45" style="fill:#161823" />
<rect x="90" y="150" width="45" height="45" style="fill:#090b16" />
<rect x="150" y="150" width="45" height="45" style="fill:#ff837f" />
<rect x="210" y="150" width="45" height="45" style="fill:#feff97" />
<rect x="270" y="150" width="45" height="45" style="fill:#7fffa0" />
<rect x="330" y="150" width="45" height="45" style="fill:#b3ffff" />
<rect x="390" y="150" width="45" height="45" style="fill:#b9f8ff" />
<rect x="450" y="150" width="45" height="45" style="fill:#ffaefe" />
</svg>