<?xml version="1.0" encoding="UTF-8" ?>
<svg width="525" height="225" xmlns="http://www.w3.org/2000/svg">
<rect x="0" y="0" width="525" height="225" style="fill:#fafafa" />
<rect x="30" y="30" width="45" height="45" style="fill:#fafafa" />
<rect x="90" y="30" width="45" height="45" style="fill:#7c9f4b" />
<rect x="150" y="30" width="45" height="45" style="fill:#d69822" />
<rect x="210" y="30" width="45" height="45" style="fill:#5e646f" />
<rect x="270" y="30" width="45" height="45" style="fill:#6587bf" />
<rect x="330" y="30" width="45" height="45" style="fill:#5e646f" />
<rect x="390" y="30" width="45" height="45" style="fill:#b870ce" />
<rect x="450" y="30" width="45" height="45" style="fill:#5e646f" />
<rect x="30" y="90" width="45" height="45" style="fill:#db7070" />
<rect x="90" y="90" width="45" height="45" style="fill:#db7070" />
<rect x="150" y="90" width="45" height="45" style="fill:#d69822" />
<rect x="210" y="90" width="45" height="45" style="fill:#7c9f4b" />
<rect x="270" y="90" width="45" height="45" style="fill:#509c93" />
<rect x="330" y="90" width="45" height="45" style="fill:#6587bf" />
<rect x="390" y="90" width="45" height="45" style="fill:#b870ce" />
<rect x="450" y="90" width="45" height="45" style="fill:#509c93" />
<rect x="30" y="150" width="45" height="45" style="fill:#8d8e8e" />
<rect x="90" y="150" width="45" height="45" style="fill:#4d4e4e" />
<rect x="150" y="150" width="45" height="45" style="fill:#ffa8a6" />
<rect x="210" y="150" width="45" height="45" style="fill:#ffd85d" />
<rect x="270" y="150" width="45" height="45" style="fill:#b3da7e" />
<rect x="330" y="150" width="45" height="45" style="fill:#89d4ca" />
<rect x="390" y="150" width="45" height="45" style="fill:#99bbf6" />
<rect x="450" y="150" width="45" height="45" style="fill:#f4a8ff" />
</svg>