<?xml version="1.0" encoding="UTF-8" ?>
<svg width="525" height="225" xmlns="http://www.w3.org/2000/svg">
<rect x="0" y="0" width="525" height="225" style="fill:#fafafa" />
<rect x="30" y="30" width="45" height="45" style="fill:#fafafa" />
<rect x="90" y="30" width="45" height="45" style="fill:#7c9f4b" />
<rect x="150" y="30" width="45" height="45" style="fill:#d69822" />
<rect x="210" y="30" width="45" height="45" style="fill:#5e646f" />
<rect x="270" y="30" width="45" height="45" style="fill:#6587bf" />
<rect x="330" y="30" width="45" height="45" style="fill:#5e646f" />
<rect x="390" y="30" width="45" height="45" style="fill:#b870ce" />
<rect x="450" y="30" width="45" height="45" style="fill:#5e646f" />
<rect x="30" y="90" width="45" height="45" style="fill:#db7070" />
<rect x="90" y="90" width="45" height="45" style="fill:#db7070" />
<rect x="150" y="90" width="45" height="45" style="fill:#d69822" />
<rect x="210" y="90" width="45" height="45" style="fill:#7c9f4b" />
<rect x="270" y="90" width="45" height="45" style="fill:#509c93" />
<rect x="330" y="90" width="45" height="45" style="fill:#6587bf" />
<rect x="390" y="90" width="45" height="45" style="fill:#b870ce" />
<rect x="450" y="90" width="45" height="45" style="fill:#509c93" />
<rect x="30" y="150" width="45" height="45" style="fill:#a4a5a5" />
<rect x="90" y="150" width="45" height="45" style="fill:#6a6b6c" />
<rect x="150" y="150" width="45" height="45" style="fill:#ff9d9c" />
<rect x="210" y="150" width="45" height="45" style="fill:#ffcb52" />
<rect x="270" y="150" width="45" height="45" style="fill:#a9ce74" />
<rect x="330" y="150" width="45" height="45" style="fill:#7ec9bf" />
<rect x="390" y="150" width="45" height="45" style="fill:#8fb1eb" />
<rect x="450" y="150" width="45" height="45" style="fill:#e89dfe" />
</svg>