<?xml version="1.0" encoding="UTF-8" ?>
<svg width="525" height="225" xmlns="http://www.w3.org/2000/svg">
<rect x="0" y="0" width="525" height="225" style="fill:#d1d6db" />
<rect x="30" y="30" width="45" height="45" style="fill:#d1d6db" />
<rect x="90" y="30" width="45" height="45" style="fill:#aeb6be" />
<rect x="150" y="30" width="45" height="45" style="fill:#909aa3" />
<rect x="210" y="30" width="45" height="45" style="fill:#75808a" />
<rect x="270" y="30" width="45" height="45" style="fill:#47505a" />
<rect x="330" y="30" width="45" height="45" style="fill:#323b43" />
<rect x="390" y="30" width="45" height="45" style="fill:#20262c" />
<rect x="450" y="30" width="45" height="45" style="fill:#0f1316" />
<rect x="30" y="90" width="45" height="45" style="fill:#576d82" />
<rect x="90" y="90" width="45" height="45" style="fill:#578282" />
<rect x="150" y="90" width="45" height="45" style="fill:#57826d" />
<rect x="210" y="90" width="45" height="45" style="fill:#6d8257" />
<rect x="270" y="90" width="45" height="45" style="fill:#826d57" />
<rect x="330" y="90" width="45" height="45" style="fill:#82576d" />
<rect x="390" y="90" width="45" height="45" style="fill:#6d5782" />
<rect x="450" y="90" width="45" height="45" style="fill:#575782" />
<rect x="30" y="150" width="45" height="45" style="fill:#73797e" />
<rect x="90" y="150" width="45" height="45" style="fill:#3c4247" />
<rect x="150" y="150" width="45" height="45" style="fill:#8197ae" />
<rect x="210" y="150" width="45" height="45" style="fill:#86b29b" />
<rect x="270" y="150" width="45" height="45" style="fill:#9db384" />
<rect x="330" y="150" width="45" height="45" style="fill:#b19a82" />
<rect x="390" y="150" width="45" height="45" style="fill:#ae7f96" />
<rect x="450" y="150" width="45" height="45" style="fill:#957eab" />
</svg>