<?xml version="1.0" encoding="UTF-8" ?>
<svg width="525" height="225" xmlns="http://www.w3.org/2000/svg">
<rect x="0" y="0" width="525" height="225" style="fill:#2a3b4d" />
<rect x="30" y="30" width="45" height="45" style="fill:#2a3b4d" />
<rect x="90" y="30" width="45" height="45" style="fill:#3d566f" />
<rect x="150" y="30" width="45" height="45" style="fill:#4b6988" />
<rect x="210" y="30" width="45" height="45" style="fill:#55799c" />
<rect x="270" y="30" width="45" height="45" style="fill:#7e90a3" />
<rect x="330" y="30" width="45" height="45" style="fill:#9fa2a6" />
<rect x="390" y="30" width="45" height="45" style="fill:#d6d7d9" />
<rect x="450" y="30" width="45" height="45" style="fill:#ffffff" />
<rect x="30" y="90" width="45" height="45" style="fill:#c4676c" />
<rect x="90" y="90" width="45" height="45" style="fill:#ff9966" />
<rect x="150" y="90" width="45" height="45" style="fill:#cfd05d" />
<rect x="210" y="90" width="45" height="45" style="fill:#5de561" />
<rect x="270" y="90" width="45" height="45" style="fill:#4b8f77" />
<rect x="330" y="90" width="45" height="45" style="fill:#1ae1dc" />
<rect x="390" y="90" width="45" height="45" style="fill:#9c6cd3" />
<rect x="450" y="90" width="45" height="45" style="fill:#bb64a9" />
<rect x="30" y="150" width="45" height="45" style="fill:#0c1e2f" />
<rect x="90" y="150" width="45" height="45" style="fill:#000c1d" />
<rect x="150" y="150" width="45" height="45" style="fill:#ff9a9e" />
<rect x="210" y="150" width="45" height="45" style="fill:#ffff8b" />
<rect x="270" y="150" width="45" height="45" style="fill:#98ff94" />
<rect x="330" y="150" width="45" height="45" style="fill:#7ec3a8" />
<rect x="390" y="150" width="45" height="45" style="fill:#79ffff" />
<rect x="450" y="150" width="45" height="45" style="fill:#d1a0ff" />
</svg>