<?xml version="1.0" encoding="UTF-8" ?>
<svg width="525" height="225" xmlns="http://www.w3.org/2000/svg">
<rect x="0" y="0" width="525" height="225" style="fill:#000000" />
<rect x="30" y="30" width="45" height="45" style="fill:#000000" />
<rect x="90" y="30" width="45" height="45" style="fill:#202020" />
<rect x="150" y="30" width="45" height="45" style="fill:#303030" />
<rect x="210" y="30" width="45" height="45" style="fill:#505050" />
<rect x="270" y="30" width="45" height="45" style="fill:#b0b0b0" />
<rect x="330" y="30" width="45" height="45" style="fill:#d0d0d0" />
<rect x="390" y="30" width="45" height="45" style="fill:#e0e0e0" />
<rect x="450" y="30" width="45" height="45" style="fill:#ffffff" />
<rect x="30" y="90" width="45" height="45" style="fill:#f5708a" />
<rect x="90" y="90" width="45" height="45" style="fill:#ee8122" />
<rect x="150" y="90" width="45" height="45" style="fill:#b8a300" />
<rect x="210" y="90" width="45" height="45" style="fill:#54bc5c" />
<rect x="270" y="90" width="45" height="45" style="fill:#00bab3" />
<rect x="330" y="90" width="45" height="45" style="fill:#00aff2" />
<rect x="390" y="90" width="45" height="45" style="fill:#9095ff" />
<rect x="450" y="90" width="45" height="45" style="fill:#d47ada" />
<rect x="30" y="150" width="45" height="45" style="fill:#000000" />
<rect x="90" y="150" width="45" height="45" style="fill:#000000" />
<rect x="150" y="150" width="45" height="45" style="fill:#ffa0ba" />
<rect x="210" y="150" width="45" height="45" style="fill:#edd740" />
<rect x="270" y="150" width="45" height="45" style="fill:#87f18a" />
<rect x="330" y="150" width="45" height="45" style="fill:#61eee6" />
<rect x="390" y="150" width="45" height="45" style="fill:#61e2ff" />
<rect x="450" y="150" width="45" height="45" style="fill:#c0c7ff" />
</svg>