<?xml version="1.0" encoding="UTF-8" ?>
<svg width="525" height="225" xmlns="http://www.w3.org/2000/svg">
<rect x="0" y="0" width="525" height="225" style="fill:#272e33" />
<rect x="30" y="30" width="45" height="45" style="fill:#272e33" />
<rect x="90" y="30" width="45" height="45" style="fill:#2e383c" />
<rect x="150" y="30" width="45" height="45" style="fill:#414b50" />
<rect x="210" y="30" width="45" height="45" style="fill:#859289" />
<rect x="270" y="30" width="45" height="45" style="fill:#9da9a0" />
<rect x="330" y="30" width="45" height="45" style="fill:#d3c6aa" />
<rect x="390" y="30" width="45" height="45" style="fill:#edeada" />
<rect x="450" y="30" width="45" height="45" style="fill:#fffbef" />
<rect x="30" y="90" width="45" height="45" style="fill:#e67e80" />
<rect x="90" y="90" width="45" height="45" style="fill:#e69875" />
<rect x="150" y="90" width="45" height="45" style="fill:#dbbc7f" />
<rect x="210" y="90" width="45" height="45" style="fill:#a7c080" />
<rect x="270" y="90" width="45" height="45" style="fill:#83c092" />
<rect x="330" y="90" width="45" height="45" style="fill:#7fbbb3" />
<rect x="390" y="90" width="45" height="45" style="fill:#d699b6" />
<rect x="450" y="90" width="45" height="45" style="fill:#9da9a0" />
<rect x="30" y="150" width="45" height="45" style="fill:#0f161a" />
<rect x="90" y="150" width="45" height="45" style="fill:#03080b" />
<rect x="150" y="150" width="45" height="45" style="fill:#ffbabb" />
<rect x="210" y="150" width="45" height="45" style="fill:#fff9b6" />
<rect x="270" y="150" width="45" height="45" style="fill:#ecffc1" />
<rect x="330" y="150" width="45" height="45" style="fill:#c5ffd3" />
<rect x="390" y="150" width="45" height="45" style="fill:#c1fff6" />
<rect x="450" y="150" width="45" height="45" style="fill:#ffdaf9" />
</svg>