<?xml version="1.0" encoding="UTF-8" ?>
<svg width="525" height="225" xmlns="http://www.w3.org/2000/svg">
<rect x="0" y="0" width="525" height="225" style="fill:#2C3E50" />
<rect x="30" y="30" width="45" height="45" style="fill:#2C3E50" />
<rect x="90" y="30" width="45" height="45" style="fill:#34495E" />
<rect x="150" y="30" width="45" height="45" style="fill:#7F8C8D" />
<rect x="210" y="30" width="45" height="45" style="fill:#95A5A6" />
<rect x="270" y="30" width="45" height="45" style="fill:#BDC3C7" />
<rect x="330" y="30" width="45" height="45" style="fill:#e0e0e0" />
<rect x="390" y="30" width="45" height="45" style="fill:#f5f5f5" />
<rect x="450" y="30" width="45" height="45" style="fill:#ECF0F1" />
<rect x="30" y="90" width="45" height="45" style="fill:#E74C3C" />
<rect x="90" y="90" width="45" height="45" style="fill:#E67E22" />
<rect x="150" y="90" width="45" height="45" style="fill:#F1C40F" />
<rect x="210" y="90" width="45" height="45" style="fill:#2ECC71" />
<rect x="270" y="90" width="45" height="45" style="fill:#1ABC9C" />
<rect x="330" y="90" width="45" height="45" style="fill:#3498DB" />
<rect x="390" y="90" width="45" height="45" style="fill:#9B59B6" />
<rect x="450" y="90" width="45" height="45" style="fill:#be643c" />
<rect x="30" y="150" width="45" height="45" style="fill:#142637" />
<rect x="90" y="150" width="45" height="45" style="fill:#031526" />
<rect x="150" y="150" width="45" height="45" style="fill:#ff7661" />
<rect x="210" y="150" width="45" height="45" style="fill:#fff84b" />
<rect x="270" y="150" width="45" height="45" style="fill:#72ffa3" />
<rect x="330" y="150" width="45" height="45" style="fill:#66f1ce" />
<rect x="390" y="150" width="45" height="45" style="fill:#6ac5ff" />
<rect x="450" y="150" width="45" height="45" style="fill:#c47fdf" />
</svg>