<?xml version="1.0" encoding="UTF-8" ?>
<svg width="525" height="225" xmlns="http://www.w3.org/2000/svg">
<rect x="0" y="0" width="525" height="225" style="fill:#181818" />
<rect x="30" y="30" width="45" height="45" style="fill:#181818" />
<rect x="90" y="30" width="45" height="45" style="fill:#151515" />
<rect x="150" y="30" width="45" height="45" style="fill:#464646" />
<rect x="210" y="30" width="45" height="45" style="fill:#747474" />
<rect x="270" y="30" width="45" height="45" style="fill:#B9B9B9" />
<rect x="330" y="30" width="45" height="45" style="fill:#D0D0D0" />
<rect x="390" y="30" width="45" height="45" style="fill:#E8E8E8" />
<rect x="450" y="30" width="45" height="45" style="fill:#EEEEEE" />
<rect x="30" y="90" width="45" height="45" style="fill:#FD886B" />
<rect x="90" y="90" width="45" height="45" style="fill:#FC4769" />
<rect x="150" y="90" width="45" height="45" style="fill:#FECB6E" />
<rect x="210" y="90" width="45" height="45" style="fill:#32CCDC" />
<rect x="270" y="90" width="45" height="45" style="fill:#ACDDFD" />
<rect x="330" y="90" width="45" height="45" style="fill:#20BCFC" />
<rect x="390" y="90" width="45" height="45" style="fill:#BA8CFC" />
<rect x="450" y="90" width="45" height="45" style="fill:#B15F4A" />
<rect x="30" y="150" width="45" height="45" style="fill:#0b0b0c" />
<rect x="90" y="150" width="45" height="45" style="fill:#040405" />
<rect x="150" y="150" width="45" height="45" style="fill:#ffbc9b" />
<rect x="210" y="150" width="45" height="45" style="fill:#fff492" />
<rect x="270" y="150" width="45" height="45" style="fill:#7dffff" />
<rect x="330" y="150" width="45" height="45" style="fill:#d6ffff" />
<rect x="390" y="150" width="45" height="45" style="fill:#70f2ff" />
<rect x="450" y="150" width="45" height="45" style="fill:#eebfff" />
</svg>