<?xml version="1.0" encoding="UTF-8" ?>
<svg width="525" height="225" xmlns="http://www.w3.org/2000/svg">
<rect x="0" y="0" width="525" height="225" style="fill:#ffffff" />
<rect x="30" y="30" width="45" height="45" style="fill:#ffffff" />
<rect x="90" y="30" width="45" height="45" style="fill:#f5f5f5" />
<rect x="150" y="30" width="45" height="45" style="fill:#c8c8fa" />
<rect x="210" y="30" width="45" height="45" style="fill:#969896" />
<rect x="270" y="30" width="45" height="45" style="fill:#e8e8e8" />
<rect x="330" y="30" width="45" height="45" style="fill:#333333" />
<rect x="390" y="30" width="45" height="45" style="fill:#ffffff" />
<rect x="450" y="30" width="45" height="45" style="fill:#ffffff" />
<rect x="30" y="90" width="45" height="45" style="fill:#ed6a43" />
<rect x="90" y="90" width="45" height="45" style="fill:#0086b3" />
<rect x="150" y="90" width="45" height="45" style="fill:#795da3" />
<rect x="210" y="90" width="45" height="45" style="fill:#183691" />
<rect x="270" y="90" width="45" height="45" style="fill:#183691" />
<rect x="330" y="90" width="45" height="45" style="fill:#795da3" />
<rect x="390" y="90" width="45" height="45" style="fill:#a71d5d" />
<rect x="450" y="90" width="45" height="45" style="fill:#333333" />
<rect x="30" y="150" width="45" height="45" style="fill:#a7a8a8" />
<rect x="90" y="150" width="45" height="45" style="fill:#6c6d6e" />
<rect x="150" y="150" width="45" height="45" style="fill:#ff976c" />
<rect x="210" y="150" width="45" height="45" style="fill:#9c80c8" />
<rect x="270" y="150" width="45" height="45" style="fill:#2d4da6" />
<rect x="330" y="150" width="45" height="45" style="fill:#2d4da6" />
<rect x="390" y="150" width="45" height="45" style="fill:#9c80c8" />
<rect x="450" y="150" width="45" height="45" style="fill:#cf407c" />
</svg>