<?xml version="1.0" encoding="UTF-8" ?>
<svg width="525" height="225" xmlns="http://www.w3.org/2000/svg">
<rect x="0" y="0" width="525" height="225" style="fill:#101010" />
<rect x="30" y="30" width="45" height="45" style="fill:#101010" />
<rect x="90" y="30" width="45" height="45" style="fill:#252525" />
<rect x="150" y="30" width="45" height="45" style="fill:#464646" />
<rect x="210" y="30" width="45" height="45" style="fill:#525252" />
<rect x="270" y="30" width="45" height="45" style="fill:#ababab" />
<rect x="330" y="30" width="45" height="45" style="fill:#b9b9b9" />
<rect x="390" y="30" width="45" height="45" style="fill:#e3e3e3" />
<rect x="450" y="30" width="45" height="45" style="fill:#f7f7f7" />
<rect x="30" y="90" width="45" height="45" style="fill:#7c7c7c" />
<rect x="90" y="90" width="45" height="45" style="fill:#999999" />
<rect x="150" y="90" width="45" height="45" style="fill:#a0a0a0" />
<rect x="210" y="90" width="45" height="45" style="fill:#8e8e8e" />
<rect x="270" y="90" width="45" height="45" style="fill:#868686" />
<rect x="330" y="90" width="45" height="45" style="fill:#686868" />
<rect x="390" y="90" width="45" height="45" style="fill:#747474" />
<rect x="450" y="90" width="45" height="45" style="fill:#5e5e5e" />
<rect x="30" y="150" width="45" height="45" style="fill:#060606" />
<rect x="90" y="150" width="45" height="45" style="fill:#020202" />
<rect x="150" y="150" width="45" height="45" style="fill:#a4a3a3" />
<rect x="210" y="150" width="45" height="45" style="fill:#d3d2d2" />
<rect x="270" y="150" width="45" height="45" style="fill:#bbbbba" />
<rect x="330" y="150" width="45" height="45" style="fill:#b1b0b0" />
<rect x="390" y="150" width="45" height="45" style="fill:#8a8989" />
<rect x="450" y="150" width="45" height="45" style="fill:#999999" />
</svg>