<?xml version="1.0" encoding="UTF-8" ?>
<svg width="525" height="225" xmlns="http://www.w3.org/2000/svg">
<rect x="0" y="0" width="525" height="225" style="fill:#001100" />
<rect x="30" y="30" width="45" height="45" style="fill:#001100" />
<rect x="90" y="30" width="45" height="45" style="fill:#003300" />
<rect x="150" y="30" width="45" height="45" style="fill:#005500" />
<rect x="210" y="30" width="45" height="45" style="fill:#007700" />
<rect x="270" y="30" width="45" height="45" style="fill:#009900" />
<rect x="330" y="30" width="45" height="45" style="fill:#00bb00" />
<rect x="390" y="30" width="45" height="45" style="fill:#00dd00" />
<rect x="450" y="30" width="45" height="45" style="fill:#00ff00" />
<rect x="30" y="90" width="45" height="45" style="fill:#007700" />
<rect x="90" y="90" width="45" height="45" style="fill:#009900" />
<rect x="150" y="90" width="45" height="45" style="fill:#007700" />
<rect x="210" y="90" width="45" height="45" style="fill:#00bb00" />
<rect x="270" y="90" width="45" height="45" style="fill:#005500" />
<rect x="330" y="90" width="45" height="45" style="fill:#009900" />
<rect x="390" y="90" width="45" height="45" style="fill:#00bb00" />
<rect x="450" y="90" width="45" height="45" style="fill:#005500" />
<rect x="30" y="150" width="45" height="45" style="fill:#000600" />
<rect x="90" y="150" width="45" height="45" style="fill:#000200" />
<rect x="150" y="150" width="45" height="45" style="fill:#3ca22e" />
<rect x="210" y="150" width="45" height="45" style="fill:#3ca22e" />
<rect x="270" y="150" width="45" height="45" style="fill:#61fc4c" />
<rect x="330" y="150" width="45" height="45" style="fill:#29751f" />
<rect x="390" y="150" width="45" height="45" style="fill:#4ecf3d" />
<rect x="450" y="150" width="45" height="45" style="fill:#61fc4c" />
</svg>