<?xml version="1.0" encoding="UTF-8" ?>
<svg width="525" height="225" xmlns="http://www.w3.org/2000/svg">
<rect x="0" y="0" width="525" height="225" style="fill:#181818" />
<rect x="30" y="30" width="45" height="45" style="fill:#181818" />
<rect x="90" y="30" width="45" height="45" style="fill:#453d41" />
<rect x="150" y="30" width="45" height="45" style="fill:#484848" />
<rect x="210" y="30" width="45" height="45" style="fill:#52494e" />
<rect x="270" y="30" width="45" height="45" style="fill:#e4e4ef" />
<rect x="330" y="30" width="45" height="45" style="fill:#f4f4ff" />
<rect x="390" y="30" width="45" height="45" style="fill:#f5f5f5" />
<rect x="450" y="30" width="45" height="45" style="fill:#e4e4ef" />
<rect x="30" y="90" width="45" height="45" style="fill:#f43841" />
<rect x="90" y="90" width="45" height="45" style="fill:#c73c3f" />
<rect x="150" y="90" width="45" height="45" style="fill:#ffdd33" />
<rect x="210" y="90" width="45" height="45" style="fill:#73c936" />
<rect x="270" y="90" width="45" height="45" style="fill:#95a99f" />
<rect x="330" y="90" width="45" height="45" style="fill:#96a6c8" />
<rect x="390" y="90" width="45" height="45" style="fill:#9e95c7" />
<rect x="450" y="90" width="45" height="45" style="fill:#cc8c3c" />
<rect x="30" y="150" width="45" height="45" style="fill:#080808" />
<rect x="90" y="150" width="45" height="45" style="fill:#020202" />
<rect x="150" y="150" width="45" height="45" style="fill:#ff6f6f" />
<rect x="210" y="150" width="45" height="45" style="fill:#fffc51" />
<rect x="270" y="150" width="45" height="45" style="fill:#b3ff74" />
<rect x="330" y="150" width="45" height="45" style="fill:#d4e9de" />
<rect x="390" y="150" width="45" height="45" style="fill:#d6e6ff" />
<rect x="450" y="150" width="45" height="45" style="fill:#dbd1ff" />
</svg>