<?xml version="1.0" encoding="UTF-8" ?>
<svg width="525" height="225" xmlns="http://www.w3.org/2000/svg">
<rect x="0" y="0" width="525" height="225" style="fill:#fbf1c7" />
<rect x="30" y="30" width="45" height="45" style="fill:#fbf1c7" />
<rect x="90" y="30" width="45" height="45" style="fill:#f2e5bc" />
<rect x="150" y="30" width="45" height="45" style="fill:#d5c4a1" />
<rect x="210" y="30" width="45" height="45" style="fill:#bdae93" />
<rect x="270" y="30" width="45" height="45" style="fill:#665c54" />
<rect x="330" y="30" width="45" height="45" style="fill:#654735" />
<rect x="390" y="30" width="45" height="45" style="fill:#3c3836" />
<rect x="450" y="30" width="45" height="45" style="fill:#282828" />
<rect x="30" y="90" width="45" height="45" style="fill:#c14a4a" />
<rect x="90" y="90" width="45" height="45" style="fill:#c35e0a" />
<rect x="150" y="90" width="45" height="45" style="fill:#b47109" />
<rect x="210" y="90" width="45" height="45" style="fill:#6c782e" />
<rect x="270" y="90" width="45" height="45" style="fill:#4c7a5d" />
<rect x="330" y="90" width="45" height="45" style="fill:#45707a" />
<rect x="390" y="90" width="45" height="45" style="fill:#945e80" />
<rect x="450" y="90" width="45" height="45" style="fill:#e78a4e" />
<rect x="30" y="150" width="45" height="45" style="fill:#908865" />
<rect x="90" y="150" width="45" height="45" style="fill:#514a2c" />
<rect x="150" y="150" width="45" height="45" style="fill:#fd7774" />
<rect x="210" y="150" width="45" height="45" style="fill:#efa33e" />
<rect x="270" y="150" width="45" height="45" style="fill:#99a656" />
<rect x="330" y="150" width="45" height="45" style="fill:#78a787" />
<rect x="390" y="150" width="45" height="45" style="fill:#6f9aa5" />
<rect x="450" y="150" width="45" height="45" style="fill:#c58aae" />
</svg>