<?xml version="1.0" encoding="UTF-8" ?>
<svg width="525" height="225" xmlns="http://www.w3.org/2000/svg">
<rect x="0" y="0" width="525" height="225" style="fill:#212121" />
<rect x="30" y="30" width="45" height="45" style="fill:#212121" />
<rect x="90" y="30" width="45" height="45" style="fill:#303030" />
<rect x="150" y="30" width="45" height="45" style="fill:#353535" />
<rect x="210" y="30" width="45" height="45" style="fill:#4A4A4A" />
<rect x="270" y="30" width="45" height="45" style="fill:#707070" />
<rect x="330" y="30" width="45" height="45" style="fill:#cdcdcd" />
<rect x="390" y="30" width="45" height="45" style="fill:#e5e5e5" />
<rect x="450" y="30" width="45" height="45" style="fill:#ffffff" />
<rect x="30" y="90" width="45" height="45" style="fill:#f92672" />
<rect x="90" y="90" width="45" height="45" style="fill:#fd971f" />
<rect x="150" y="90" width="45" height="45" style="fill:#e6db74" />
<rect x="210" y="90" width="45" height="45" style="fill:#a6e22e" />
<rect x="270" y="90" width="45" height="45" style="fill:#708387" />
<rect x="330" y="90" width="45" height="45" style="fill:#66d9ef" />
<rect x="390" y="90" width="45" height="45" style="fill:#9e6ffe" />
<rect x="450" y="90" width="45" height="45" style="fill:#e8b882" />
<rect x="30" y="150" width="45" height="45" style="fill:#111212" />
<rect x="90" y="150" width="45" height="45" style="fill:#070808" />
<rect x="150" y="150" width="45" height="45" style="fill:#ff5a9c" />
<rect x="210" y="150" width="45" height="45" style="fill:#ffff95" />
<rect x="270" y="150" width="45" height="45" style="fill:#d5ff5f" />
<rect x="330" y="150" width="45" height="45" style="fill:#98abb0" />
<rect x="390" y="150" width="45" height="45" style="fill:#a4ffff" />
<rect x="450" y="150" width="45" height="45" style="fill:#ca9dff" />
</svg>