<?xml version="1.0" encoding="UTF-8" ?>
<svg width="525" height="225" xmlns="http://www.w3.org/2000/svg">
<rect x="0" y="0" width="525" height="225" style="fill:#feffff" />
<rect x="30" y="30" width="45" height="45" style="fill:#feffff" />
<rect x="90" y="30" width="45" height="45" style="fill:#392551" />
<rect x="150" y="30" width="45" height="45" style="fill:#7b6d8b" />
<rect x="210" y="30" width="45" height="45" style="fill:#9c92a8" />
<rect x="270" y="30" width="45" height="45" style="fill:#ddd6e5" />
<rect x="330" y="30" width="45" height="45" style="fill:#5a496e" />
<rect x="390" y="30" width="45" height="45" style="fill:#470546" />
<rect x="450" y="30" width="45" height="45" style="fill:#190134" />
<rect x="30" y="90" width="45" height="45" style="fill:#27d9d5" />
<rect x="90" y="90" width="45" height="45" style="fill:#bdb6c5" />
<rect x="150" y="90" width="45" height="45" style="fill:#5ba2b6" />
<rect x="210" y="90" width="45" height="45" style="fill:#f80059" />
<rect x="270" y="90" width="45" height="45" style="fill:#c33678" />
<rect x="330" y="90" width="45" height="45" style="fill:#47f9f5" />
<rect x="390" y="90" width="45" height="45" style="fill:#bd0152" />
<rect x="450" y="90" width="45" height="45" style="fill:#dedae2" />
<rect x="30" y="150" width="45" height="45" style="fill:#a6a8a9" />
<rect x="90" y="150" width="45" height="45" style="fill:#6b6e6f" />
<rect x="150" y="150" width="45" height="45" style="fill:#7cffff" />
<rect x="210" y="150" width="45" height="45" style="fill:#8bd2e6" />
<rect x="270" y="150" width="45" height="45" style="fill:#ff487f" />
<rect x="330" y="150" width="45" height="45" style="fill:#f25d9d" />
<rect x="390" y="150" width="45" height="45" style="fill:#77ffff" />
<rect x="450" y="150" width="45" height="45" style="fill:#ea3671" />
</svg>