<?xml version="1.0" encoding="UTF-8" ?>
<svg width="525" height="225" xmlns="http://www.w3.org/2000/svg">
<rect x="0" y="0" width="525" height="225" style="fill:#1d2021" />
<rect x="30" y="30" width="45" height="45" style="fill:#1d2021" />
<rect x="90" y="30" width="45" height="45" style="fill:#383c3e" />
<rect x="150" y="30" width="45" height="45" style="fill:#53585b" />
<rect x="210" y="30" width="45" height="45" style="fill:#6f7579" />
<rect x="270" y="30" width="45" height="45" style="fill:#cdcdcd" />
<rect x="330" y="30" width="45" height="45" style="fill:#d5d5d5" />
<rect x="390" y="30" width="45" height="45" style="fill:#dddddd" />
<rect x="450" y="30" width="45" height="45" style="fill:#e5e5e5" />
<rect x="30" y="90" width="45" height="45" style="fill:#d72638" />
<rect x="90" y="90" width="45" height="45" style="fill:#eb8413" />
<rect x="150" y="90" width="45" height="45" style="fill:#f19d1a" />
<rect x="210" y="90" width="45" height="45" style="fill:#88b92d" />
<rect x="270" y="90" width="45" height="45" style="fill:#1ba595" />
<rect x="330" y="90" width="45" height="45" style="fill:#1e8bac" />
<rect x="390" y="90" width="45" height="45" style="fill:#be4264" />
<rect x="450" y="90" width="45" height="45" style="fill:#c85e0d" />
<rect x="30" y="150" width="45" height="45" style="fill:#0e1112" />
<rect x="90" y="150" width="45" height="45" style="fill:#050708" />
<rect x="150" y="150" width="45" height="45" style="fill:#ff5058" />
<rect x="210" y="150" width="45" height="45" style="fill:#ffd350" />
<rect x="270" y="150" width="45" height="45" style="fill:#baf05d" />
<rect x="330" y="150" width="45" height="45" style="fill:#5cd4c2" />
<rect x="390" y="150" width="45" height="45" style="fill:#55b4d6" />
<rect x="450" y="150" width="45" height="45" style="fill:#ed6688" />
</svg>