<?xml version="1.0" encoding="UTF-8" ?>
<svg width="525" height="225" xmlns="http://www.w3.org/2000/svg">
<rect x="0" y="0" width="525" height="225" style="fill:#FDF0ED" />
<rect x="30" y="30" width="45" height="45" style="fill:#FDF0ED" />
<rect x="90" y="30" width="45" height="45" style="fill:#FADAD1" />
<rect x="150" y="30" width="45" height="45" style="fill:#F9CBBE" />
<rect x="210" y="30" width="45" height="45" style="fill:#BDB3B1" />
<rect x="270" y="30" width="45" height="45" style="fill:#948C8A" />
<rect x="330" y="30" width="45" height="45" style="fill:#403C3D" />
<rect x="390" y="30" width="45" height="45" style="fill:#302C2D" />
<rect x="450" y="30" width="45" height="45" style="fill:#201C1D" />
<rect x="30" y="90" width="45" height="45" style="fill:#F7939B" />
<rect x="90" y="90" width="45" height="45" style="fill:#F6661E" />
<rect x="150" y="90" width="45" height="45" style="fill:#FBE0D9" />
<rect x="210" y="90" width="45" height="45" style="fill:#94E1B0" />
<rect x="270" y="90" width="45" height="45" style="fill:#DC3318" />
<rect x="330" y="90" width="45" height="45" style="fill:#DA103F" />
<rect x="390" y="90" width="45" height="45" style="fill:#1D8991" />
<rect x="450" y="90" width="45" height="45" style="fill:#E58C92" />
<rect x="30" y="150" width="45" height="45" style="fill:#918785" />
<rect x="90" y="150" width="45" height="45" style="fill:#514948" />
<rect x="150" y="150" width="45" height="45" style="fill:#ffd6de" />
<rect x="210" y="150" width="45" height="45" style="fill:#fff7f0" />
<rect x="270" y="150" width="45" height="45" style="fill:#c5ffe0" />
<rect x="330" y="150" width="45" height="45" style="fill:#ff6441" />
<rect x="390" y="150" width="45" height="45" style="fill:#ff4d68" />
<rect x="450" y="150" width="45" height="45" style="fill:#5cbac2" />
</svg>