<?xml version="1.0" encoding="UTF-8" ?>
<svg width="525" height="225" xmlns="http://www.w3.org/2000/svg">
<rect x="0" y="0" width="525" height="225" style="fill:#232629" />
<rect x="30" y="30" width="45" height="45" style="fill:#232629" />
<rect x="90" y="30" width="45" height="45" style="fill:#333b3d" />
<rect x="150" y="30" width="45" height="45" style="fill:#484e54" />
<rect x="210" y="30" width="45" height="45" style="fill:#60615d" />
<rect x="270" y="30" width="45" height="45" style="fill:#c0c0bd" />
<rect x="330" y="30" width="45" height="45" style="fill:#f8f8f2" />
<rect x="390" y="30" width="45" height="45" style="fill:#fcfcf6" />
<rect x="450" y="30" width="45" height="45" style="fill:#fcfcfc" />
<rect x="30" y="90" width="45" height="45" style="fill:#f11235" />
<rect x="90" y="90" width="45" height="45" style="fill:#ff9505" />
<rect x="150" y="90" width="45" height="45" style="fill:#ffb627" />
<rect x="210" y="90" width="45" height="45" style="fill:#02d849" />
<rect x="270" y="90" width="45" height="45" style="fill:#0dd9d6" />
<rect x="330" y="90" width="45" height="45" style="fill:#00a6fb" />
<rect x="390" y="90" width="45" height="45" style="fill:#f15ee3" />
<rect x="450" y="90" width="45" height="45" style="fill:#b27701" />
<rect x="30" y="150" width="45" height="45" style="fill:#0e1113" />
<rect x="90" y="150" width="45" height="45" style="fill:#030506" />
<rect x="150" y="150" width="45" height="45" style="fill:#ff5460" />
<rect x="210" y="150" width="45" height="45" style="fill:#ffed5b" />
<rect x="270" y="150" width="45" height="45" style="fill:#75ff88" />
<rect x="330" y="150" width="45" height="45" style="fill:#7dffff" />
<rect x="390" y="150" width="45" height="45" style="fill:#6be3ff" />
<rect x="450" y="150" width="45" height="45" style="fill:#ff9eff" />
</svg>