<?xml version="1.0" encoding="UTF-8" ?>
<svg width="525" height="225" xmlns="http://www.w3.org/2000/svg">
<rect x="0" y="0" width="525" height="225" style="fill:#f8f8f2" />
<rect x="30" y="30" width="45" height="45" style="fill:#f8f8f2" />
<rect x="90" y="30" width="45" height="45" style="fill:#efefe9" />
<rect x="150" y="30" width="45" height="45" style="fill:#deded8" />
<rect x="210" y="30" width="45" height="45" style="fill:#c0c0bd" />
<rect x="270" y="30" width="45" height="45" style="fill:#60615d" />
<rect x="330" y="30" width="45" height="45" style="fill:#232629" />
<rect x="390" y="30" width="45" height="45" style="fill:#2f3337" />
<rect x="450" y="30" width="45" height="45" style="fill:#070708" />
<rect x="30" y="90" width="45" height="45" style="fill:#b0151a" />
<rect x="90" y="90" width="45" height="45" style="fill:#ff3d00" />
<rect x="150" y="90" width="45" height="45" style="fill:#ffb627" />
<rect x="210" y="90" width="45" height="45" style="fill:#388e3c" />
<rect x="270" y="90" width="45" height="45" style="fill:#008e8e" />
<rect x="330" y="90" width="45" height="45" style="fill:#0082c9" />
<rect x="390" y="90" width="45" height="45" style="fill:#700f98" />
<rect x="450" y="90" width="45" height="45" style="fill:#b27701" />
<rect x="30" y="150" width="45" height="45" style="fill:#a3a49e" />
<rect x="90" y="150" width="45" height="45" style="fill:#696b66" />
<rect x="150" y="150" width="45" height="45" style="fill:#db3933" />
<rect x="210" y="150" width="45" height="45" style="fill:#ffed5b" />
<rect x="270" y="150" width="45" height="45" style="fill:#60b75f" />
<rect x="330" y="150" width="45" height="45" style="fill:#4ab6b6" />
<rect x="390" y="150" width="45" height="45" style="fill:#48a9f2" />
<rect x="450" y="150" width="45" height="45" style="fill:#8a35b2" />
</svg>