<?xml version="1.0" encoding="UTF-8" ?>
<svg width="525" height="225" xmlns="http://www.w3.org/2000/svg">
<rect x="0" y="0" width="525" height="225" style="fill:#000000" />
<rect x="30" y="30" width="45" height="45" style="fill:#000000" />
<rect x="90" y="30" width="45" height="45" style="fill:#242422" />
<rect x="150" y="30" width="45" height="45" style="fill:#484844" />
<rect x="210" y="30" width="45" height="45" style="fill:#6c6c66" />
<rect x="270" y="30" width="45" height="45" style="fill:#918f88" />
<rect x="330" y="30" width="45" height="45" style="fill:#b5b3aa" />
<rect x="390" y="30" width="45" height="45" style="fill:#d9d7cc" />
<rect x="450" y="30" width="45" height="45" style="fill:#fdfbee" />
<rect x="30" y="90" width="45" height="45" style="fill:#ff6c60" />
<rect x="90" y="90" width="45" height="45" style="fill:#e9c062" />
<rect x="150" y="90" width="45" height="45" style="fill:#ffffb6" />
<rect x="210" y="90" width="45" height="45" style="fill:#a8ff60" />
<rect x="270" y="90" width="45" height="45" style="fill:#c6c5fe" />
<rect x="330" y="90" width="45" height="45" style="fill:#96cbfe" />
<rect x="390" y="90" width="45" height="45" style="fill:#ff73fd" />
<rect x="450" y="90" width="45" height="45" style="fill:#b18a3d" />
<rect x="30" y="150" width="45" height="45" style="fill:#000000" />
<rect x="90" y="150" width="45" height="45" style="fill:#000000" />
<rect x="150" y="150" width="45" height="45" style="fill:#ffa898" />
<rect x="210" y="150" width="45" height="45" style="fill:#ffffba" />
<rect x="270" y="150" width="45" height="45" style="fill:#c1ff78" />
<rect x="330" y="150" width="45" height="45" style="fill:#fbf9ff" />
<rect x="390" y="150" width="45" height="45" style="fill:#d1ffff" />
<rect x="450" y="150" width="45" height="45" style="fill:#ffb8ff" />
</svg>