<?xml version="1.0" encoding="UTF-8" ?>
<svg width="525" height="225" xmlns="http://www.w3.org/2000/svg">
<rect x="0" y="0" width="525" height="225" style="fill:#292A37" />
<rect x="30" y="30" width="45" height="45" style="fill:#292A37" />
<rect x="90" y="30" width="45" height="45" style="fill:#343545" />
<rect x="150" y="30" width="45" height="45" style="fill:#3c3e51" />
<rect x="210" y="30" width="45" height="45" style="fill:#45475d" />
<rect x="270" y="30" width="45" height="45" style="fill:#50526b" />
<rect x="330" y="30" width="45" height="45" style="fill:#c0cbe3" />
<rect x="390" y="30" width="45" height="45" style="fill:#d9e0ee" />
<rect x="450" y="30" width="45" height="45" style="fill:#ffffff" />
<rect x="30" y="90" width="45" height="45" style="fill:#ec6a88" />
<rect x="90" y="90" width="45" height="45" style="fill:#efb993" />
<rect x="150" y="90" width="45" height="45" style="fill:#e1c697" />
<rect x="210" y="90" width="45" height="45" style="fill:#3FDAA4" />
<rect x="270" y="90" width="45" height="45" style="fill:#ff7eb6" />
<rect x="330" y="90" width="45" height="45" style="fill:#3FC6DE" />
<rect x="390" y="90" width="45" height="45" style="fill:#be95ff" />
<rect x="450" y="90" width="45" height="45" style="fill:#8b8da9" />
<rect x="30" y="150" width="45" height="45" style="fill:#161724" />
<rect x="90" y="150" width="45" height="45" style="fill:#0a0a17" />
<rect x="150" y="150" width="45" height="45" style="fill:#ff99b7" />
<rect x="210" y="150" width="45" height="45" style="fill:#fff9c7" />
<rect x="270" y="150" width="45" height="45" style="fill:#86ffdc" />
<rect x="330" y="150" width="45" height="45" style="fill:#ffb3ed" />
<rect x="390" y="150" width="45" height="45" style="fill:#82feff" />
<rect x="450" y="150" width="45" height="45" style="fill:#f4caff" />
</svg>