<?xml version="1.0" encoding="UTF-8" ?>
<svg width="525" height="225" xmlns="http://www.w3.org/2000/svg">
<rect x="0" y="0" width="525" height="225" style="fill:#000000" />
<rect x="30" y="30" width="45" height="45" style="fill:#000000" />
<rect x="90" y="30" width="45" height="45" style="fill:#404040" />
<rect x="150" y="30" width="45" height="45" style="fill:#404040" />
<rect x="210" y="30" width="45" height="45" style="fill:#808080" />
<rect x="270" y="30" width="45" height="45" style="fill:#808080" />
<rect x="330" y="30" width="45" height="45" style="fill:#c0c0c0" />
<rect x="390" y="30" width="45" height="45" style="fill:#c0c0c0" />
<rect x="450" y="30" width="45" height="45" style="fill:#ffffff" />
<rect x="30" y="90" width="45" height="45" style="fill:#dd0907" />
<rect x="90" y="90" width="45" height="45" style="fill:#ff6403" />
<rect x="150" y="90" width="45" height="45" style="fill:#fbf305" />
<rect x="210" y="90" width="45" height="45" style="fill:#1fb714" />
<rect x="270" y="90" width="45" height="45" style="fill:#02abea" />
<rect x="330" y="90" width="45" height="45" style="fill:#0000d3" />
<rect x="390" y="90" width="45" height="45" style="fill:#4700a5" />
<rect x="450" y="90" width="45" height="45" style="fill:#90713a" />
<rect x="30" y="150" width="45" height="45" style="fill:#000000" />
<rect x="90" y="150" width="45" height="45" style="fill:#000000" />
<rect x="150" y="150" width="45" height="45" style="fill:#ff3f2a" />
<rect x="210" y="150" width="45" height="45" style="fill:#ffff29" />
<rect x="270" y="150" width="45" height="45" style="fill:#5ceb48" />
<rect x="330" y="150" width="45" height="45" style="fill:#5fddff" />
<rect x="390" y="150" width="45" height="45" style="fill:#0037df" />
<rect x="450" y="150" width="45" height="45" style="fill:#572db7" />
</svg>