<?xml version="1.0" encoding="UTF-8" ?>
<svg width="525" height="225" xmlns="http://www.w3.org/2000/svg">
<rect x="0" y="0" width="525" height="225" style="fill:#201602" />
<rect x="30" y="30" width="45" height="45" style="fill:#201602" />
<rect x="90" y="30" width="45" height="45" style="fill:#302e00" />
<rect x="150" y="30" width="45" height="45" style="fill:#5f5b17" />
<rect x="210" y="30" width="45" height="45" style="fill:#6c6823" />
<rect x="270" y="30" width="45" height="45" style="fill:#86813b" />
<rect x="330" y="30" width="45" height="45" style="fill:#948e48" />
<rect x="390" y="30" width="45" height="45" style="fill:#ccc37a" />
<rect x="450" y="30" width="45" height="45" style="fill:#faf0a5" />
<rect x="30" y="90" width="45" height="45" style="fill:#c35359" />
<rect x="90" y="90" width="45" height="45" style="fill:#b36144" />
<rect x="150" y="90" width="45" height="45" style="fill:#a88339" />
<rect x="210" y="90" width="45" height="45" style="fill:#18974e" />
<rect x="270" y="90" width="45" height="45" style="fill:#75a738" />
<rect x="330" y="90" width="45" height="45" style="fill:#477ca1" />
<rect x="390" y="90" width="45" height="45" style="fill:#8868b3" />
<rect x="450" y="90" width="45" height="45" style="fill:#b3588e" />
<rect x="30" y="150" width="45" height="45" style="fill:#0f0600" />
<rect x="90" y="150" width="45" height="45" style="fill:#050100" />
<rect x="150" y="150" width="45" height="45" style="fill:#ff8286" />
<rect x="210" y="150" width="45" height="45" style="fill:#e2b968" />
<rect x="270" y="150" width="45" height="45" style="fill:#5acc7c" />
<rect x="330" y="150" width="45" height="45" style="fill:#ade46c" />
<rect x="390" y="150" width="45" height="45" style="fill:#76abd2" />
<rect x="450" y="150" width="45" height="45" style="fill:#b997e6" />
</svg>