<?xml version="1.0" encoding="UTF-8" ?>
<svg width="525" height="225" xmlns="http://www.w3.org/2000/svg">
<rect x="0" y="0" width="525" height="225" style="fill:#202124" />
<rect x="30" y="30" width="45" height="45" style="fill:#202124" />
<rect x="90" y="30" width="45" height="45" style="fill:#27292c" />
<rect x="150" y="30" width="45" height="45" style="fill:#323639" />
<rect x="210" y="30" width="45" height="45" style="fill:#44464d" />
<rect x="270" y="30" width="45" height="45" style="fill:#676c71" />
<rect x="330" y="30" width="45" height="45" style="fill:#80868b" />
<rect x="390" y="30" width="45" height="45" style="fill:#9e9e9e" />
<rect x="450" y="30" width="45" height="45" style="fill:#ffffff" />
<rect x="30" y="90" width="45" height="45" style="fill:#f44336" />
<rect x="90" y="90" width="45" height="45" style="fill:#ff9800" />
<rect x="150" y="90" width="45" height="45" style="fill:#ffeb3b" />
<rect x="210" y="90" width="45" height="45" style="fill:#00e676" />
<rect x="270" y="90" width="45" height="45" style="fill:#00bcd4" />
<rect x="330" y="90" width="45" height="45" style="fill:#2196f3" />
<rect x="390" y="90" width="45" height="45" style="fill:#673ab7" />
<rect x="450" y="90" width="45" height="45" style="fill:#8d6e63" />
<rect x="30" y="150" width="45" height="45" style="fill:#0c0e10" />
<rect x="90" y="150" width="45" height="45" style="fill:#030405" />
<rect x="150" y="150" width="45" height="45" style="fill:#ff7964" />
<rect x="210" y="150" width="45" height="45" style="fill:#ffff50" />
<rect x="270" y="150" width="45" height="45" style="fill:#70ffad" />
<rect x="330" y="150" width="45" height="45" style="fill:#74feff" />
<rect x="390" y="150" width="45" height="45" style="fill:#6bcfff" />
<rect x="450" y="150" width="45" height="45" style="fill:#8962dd" />
</svg>