<?xml version="1.0" encoding="UTF-8" ?>
<svg width="525" height="225" xmlns="http://www.w3.org/2000/svg">
<rect x="0" y="0" width="525" height="225" style="fill:#FAFAFA" />
<rect x="30" y="30" width="45" height="45" style="fill:#FAFAFA" />
<rect x="90" y="30" width="45" height="45" style="fill:#E7EAEC" />
<rect x="150" y="30" width="45" height="45" style="fill:#CCEAE7" />
<rect x="210" y="30" width="45" height="45" style="fill:#CCD7DA" />
<rect x="270" y="30" width="45" height="45" style="fill:#8796B0" />
<rect x="330" y="30" width="45" height="45" style="fill:#80CBC4" />
<rect x="390" y="30" width="45" height="45" style="fill:#80CBC4" />
<rect x="450" y="30" width="45" height="45" style="fill:#FFFFFF" />
<rect x="30" y="90" width="45" height="45" style="fill:#FF5370" />
<rect x="90" y="90" width="45" height="45" style="fill:#F76D47" />
<rect x="150" y="90" width="45" height="45" style="fill:#FFB62C" />
<rect x="210" y="90" width="45" height="45" style="fill:#91B859" />
<rect x="270" y="90" width="45" height="45" style="fill:#39ADB5" />
<rect x="330" y="90" width="45" height="45" style="fill:#6182B8" />
<rect x="390" y="90" width="45" height="45" style="fill:#7C4DFF" />
<rect x="450" y="90" width="45" height="45" style="fill:#E53935" />
<rect x="30" y="150" width="45" height="45" style="fill:#a4a5a5" />
<rect x="90" y="150" width="45" height="45" style="fill:#6a6b6c" />
<rect x="150" y="150" width="45" height="45" style="fill:#ff829c" />
<rect x="210" y="150" width="45" height="45" style="fill:#ffed5f" />
<rect x="270" y="150" width="45" height="45" style="fill:#c4ee88" />
<rect x="330" y="150" width="45" height="45" style="fill:#73dee6" />
<rect x="390" y="150" width="45" height="45" style="fill:#89abe3" />
<rect x="450" y="150" width="45" height="45" style="fill:#9d78ff" />
</svg>