<?xml version="1.0" encoding="UTF-8" ?>
<svg width="525" height="225" xmlns="http://www.w3.org/2000/svg">
<rect x="0" y="0" width="525" height="225" style="fill:#212121" />
<rect x="30" y="30" width="45" height="45" style="fill:#212121" />
<rect x="90" y="30" width="45" height="45" style="fill:#303030" />
<rect x="150" y="30" width="45" height="45" style="fill:#353535" />
<rect x="210" y="30" width="45" height="45" style="fill:#4A4A4A" />
<rect x="270" y="30" width="45" height="45" style="fill:#B2CCD6" />
<rect x="330" y="30" width="45" height="45" style="fill:#EEFFFF" />
<rect x="390" y="30" width="45" height="45" style="fill:#EEFFFF" />
<rect x="450" y="30" width="45" height="45" style="fill:#FFFFFF" />
<rect x="30" y="90" width="45" height="45" style="fill:#F07178" />
<rect x="90" y="90" width="45" height="45" style="fill:#F78C6C" />
<rect x="150" y="90" width="45" height="45" style="fill:#FFCB6B" />
<rect x="210" y="90" width="45" height="45" style="fill:#C3E88D" />
<rect x="270" y="90" width="45" height="45" style="fill:#89DDFF" />
<rect x="330" y="90" width="45" height="45" style="fill:#82AAFF" />
<rect x="390" y="90" width="45" height="45" style="fill:#C792EA" />
<rect x="450" y="90" width="45" height="45" style="fill:#FF5370" />
<rect x="30" y="150" width="45" height="45" style="fill:#111212" />
<rect x="90" y="150" width="45" height="45" style="fill:#070808" />
<rect x="150" y="150" width="45" height="45" style="fill:#ffa0a6" />
<rect x="210" y="150" width="45" height="45" style="fill:#fff48f" />
<rect x="270" y="150" width="45" height="45" style="fill:#e7ffae" />
<rect x="330" y="150" width="45" height="45" style="fill:#baffff" />
<rect x="390" y="150" width="45" height="45" style="fill:#b6dfff" />
<rect x="450" y="150" width="45" height="45" style="fill:#fec6ff" />
</svg>