<?xml version="1.0" encoding="UTF-8" ?>
<svg width="525" height="225" xmlns="http://www.w3.org/2000/svg">
<rect x="0" y="0" width="525" height="225" style="fill:#fdf9f5" />
<rect x="30" y="30" width="45" height="45" style="fill:#fdf9f5" />
<rect x="90" y="30" width="45" height="45" style="fill:#f9f5f1" />
<rect x="150" y="30" width="45" height="45" style="fill:#ffeada" />
<rect x="210" y="30" width="45" height="45" style="fill:#5a5a5a" />
<rect x="270" y="30" width="45" height="45" style="fill:#404040" />
<rect x="330" y="30" width="45" height="45" style="fill:#292929" />
<rect x="390" y="30" width="45" height="45" style="fill:#181818" />
<rect x="450" y="30" width="45" height="45" style="fill:#000000" />
<rect x="30" y="90" width="45" height="45" style="fill:#ac1f35" />
<rect x="90" y="90" width="45" height="45" style="fill:#ad5601" />
<rect x="150" y="90" width="45" height="45" style="fill:#645a00" />
<rect x="210" y="90" width="45" height="45" style="fill:#0c680c" />
<rect x="270" y="90" width="45" height="45" style="fill:#01716f" />
<rect x="330" y="90" width="45" height="45" style="fill:#0158ad" />
<rect x="390" y="90" width="45" height="45" style="fill:#6645c2" />
<rect x="450" y="90" width="45" height="45" style="fill:#a81a66" />
<rect x="30" y="150" width="45" height="45" style="fill:#a7a4a1" />
<rect x="90" y="150" width="45" height="45" style="fill:#6d6b68" />
<rect x="150" y="150" width="45" height="45" style="fill:#d64150" />
<rect x="210" y="150" width="45" height="45" style="fill:#827820" />
<rect x="270" y="150" width="45" height="45" style="fill:#318629" />
<rect x="330" y="150" width="45" height="45" style="fill:#39928f" />
<rect x="390" y="150" width="45" height="45" style="fill:#3176cb" />
<rect x="450" y="150" width="45" height="45" style="fill:#8367e2" />
</svg>