<?xml version="1.0" encoding="UTF-8" ?>
<svg width="525" height="225" xmlns="http://www.w3.org/2000/svg">
<rect x="0" y="0" width="525" height="225" style="fill:#00211f" />
<rect x="30" y="30" width="45" height="45" style="fill:#00211f" />
<rect x="90" y="30" width="45" height="45" style="fill:#003a38" />
<rect x="150" y="30" width="45" height="45" style="fill:#005453" />
<rect x="210" y="30" width="45" height="45" style="fill:#ababab" />
<rect x="270" y="30" width="45" height="45" style="fill:#c3c3c3" />
<rect x="330" y="30" width="45" height="45" style="fill:#dcdcdc" />
<rect x="390" y="30" width="45" height="45" style="fill:#efefef" />
<rect x="450" y="30" width="45" height="45" style="fill:#f5f5f5" />
<rect x="30" y="90" width="45" height="45" style="fill:#ce7e8e" />
<rect x="90" y="90" width="45" height="45" style="fill:#dca37c" />
<rect x="150" y="90" width="45" height="45" style="fill:#bfac4e" />
<rect x="210" y="90" width="45" height="45" style="fill:#56c16f" />
<rect x="270" y="90" width="45" height="45" style="fill:#62c0be" />
<rect x="330" y="90" width="45" height="45" style="fill:#88b0da" />
<rect x="390" y="90" width="45" height="45" style="fill:#b39be0" />
<rect x="450" y="90" width="45" height="45" style="fill:#d89aba" />
<rect x="30" y="150" width="45" height="45" style="fill:#000f0e" />
<rect x="90" y="150" width="45" height="45" style="fill:#000504" />
<rect x="150" y="150" width="45" height="45" style="fill:#ffb8c8" />
<rect x="210" y="150" width="45" height="45" style="fill:#ffef88" />
<rect x="270" y="150" width="45" height="45" style="fill:#98ffab" />
<rect x="330" y="150" width="45" height="45" style="fill:#a7ffff" />
<rect x="390" y="150" width="45" height="45" style="fill:#c9f2ff" />
<rect x="450" y="150" width="45" height="45" style="fill:#f5dbff" />
</svg>