<?xml version="1.0" encoding="UTF-8" ?>
<svg width="525" height="225" xmlns="http://www.w3.org/2000/svg">
<rect x="0" y="0" width="525" height="225" style="fill:#f8f8f8" />
<rect x="30" y="30" width="45" height="45" style="fill:#f8f8f8" />
<rect x="90" y="30" width="45" height="45" style="fill:#e8e8e8" />
<rect x="150" y="30" width="45" height="45" style="fill:#d8d8d8" />
<rect x="210" y="30" width="45" height="45" style="fill:#b8b8b8" />
<rect x="270" y="30" width="45" height="45" style="fill:#585858" />
<rect x="330" y="30" width="45" height="45" style="fill:#383838" />
<rect x="390" y="30" width="45" height="45" style="fill:#282828" />
<rect x="450" y="30" width="45" height="45" style="fill:#181818" />
<rect x="30" y="90" width="45" height="45" style="fill:#ab4642" />
<rect x="90" y="90" width="45" height="45" style="fill:#dc9656" />
<rect x="150" y="90" width="45" height="45" style="fill:#f79a0e" />
<rect x="210" y="90" width="45" height="45" style="fill:#538947" />
<rect x="270" y="90" width="45" height="45" style="fill:#4b8093" />
<rect x="330" y="90" width="45" height="45" style="fill:#7cafc2" />
<rect x="390" y="90" width="45" height="45" style="fill:#96609e" />
<rect x="450" y="90" width="45" height="45" style="fill:#a16946" />
<rect x="30" y="150" width="45" height="45" style="fill:#8b8d8d" />
<rect x="90" y="150" width="45" height="45" style="fill:#4b4e4e" />
<rect x="150" y="150" width="45" height="45" style="fill:#e06f69" />
<rect x="210" y="150" width="45" height="45" style="fill:#ffdd55" />
<rect x="270" y="150" width="45" height="45" style="fill:#82bb73" />
<rect x="330" y="150" width="45" height="45" style="fill:#7bb0c4" />
<rect x="390" y="150" width="45" height="45" style="fill:#bcf0ff" />
<rect x="450" y="150" width="45" height="45" style="fill:#c88ecf" />
</svg>