<?xml version="1.0" encoding="UTF-8" ?>
<svg width="525" height="225" xmlns="http://www.w3.org/2000/svg">
<rect x="0" y="0" width="525" height="225" style="fill:#f8f8f8" />
<rect x="30" y="30" width="45" height="45" style="fill:#f8f8f8" />
<rect x="90" y="30" width="45" height="45" style="fill:#e8e8e8" />
<rect x="150" y="30" width="45" height="45" style="fill:#d8d8d8" />
<rect x="210" y="30" width="45" height="45" style="fill:#b8b8b8" />
<rect x="270" y="30" width="45" height="45" style="fill:#585858" />
<rect x="330" y="30" width="45" height="45" style="fill:#383838" />
<rect x="390" y="30" width="45" height="45" style="fill:#282828" />
<rect x="450" y="30" width="45" height="45" style="fill:#181818" />
<rect x="30" y="90" width="45" height="45" style="fill:#ab4642" />
<rect x="90" y="90" width="45" height="45" style="fill:#dc9656" />
<rect x="150" y="90" width="45" height="45" style="fill:#f79a0e" />
<rect x="210" y="90" width="45" height="45" style="fill:#538947" />
<rect x="270" y="90" width="45" height="45" style="fill:#4b8093" />
<rect x="330" y="90" width="45" height="45" style="fill:#7cafc2" />
<rect x="390" y="90" width="45" height="45" style="fill:#96609e" />
<rect x="450" y="90" width="45" height="45" style="fill:#a16946" />
<rect x="30" y="150" width="45" height="45" style="fill:#a3a4a4" />
<rect x="90" y="150" width="45" height="45" style="fill:#696b6b" />
<rect x="150" y="150" width="45" height="45" style="fill:#d66761" />
<rect x="210" y="150" width="45" height="45" style="fill:#ffd04a" />
<rect x="270" y="150" width="45" height="45" style="fill:#79b16a" />
<rect x="330" y="150" width="45" height="45" style="fill:#72a6ba" />
<rect x="390" y="150" width="45" height="45" style="fill:#afe3f7" />
<rect x="450" y="150" width="45" height="45" style="fill:#be85c6" />
</svg>