<?xml version="1.0" encoding="UTF-8" ?>
<svg width="525" height="225" xmlns="http://www.w3.org/2000/svg">
<rect x="0" y="0" width="525" height="225" style="fill:#0f0f0f" />
<rect x="30" y="30" width="45" height="45" style="fill:#0f0f0f" />
<rect x="90" y="30" width="45" height="45" style="fill:#191919" />
<rect x="150" y="30" width="45" height="45" style="fill:#262626" />
<rect x="210" y="30" width="45" height="45" style="fill:#4c4c4c" />
<rect x="270" y="30" width="45" height="45" style="fill:#ac8a8c" />
<rect x="330" y="30" width="45" height="45" style="fill:#cacaca" />
<rect x="390" y="30" width="45" height="45" style="fill:#e7e7e7" />
<rect x="450" y="30" width="45" height="45" style="fill:#f0f0f0" />
<rect x="30" y="90" width="45" height="45" style="fill:#ac8a8c" />
<rect x="90" y="90" width="45" height="45" style="fill:#ceb188" />
<rect x="150" y="90" width="45" height="45" style="fill:#aca98a" />
<rect x="210" y="90" width="45" height="45" style="fill:#8aac8b" />
<rect x="270" y="90" width="45" height="45" style="fill:#8aabac" />
<rect x="330" y="90" width="45" height="45" style="fill:#8f8aac" />
<rect x="390" y="90" width="45" height="45" style="fill:#ac8aac" />
<rect x="450" y="90" width="45" height="45" style="fill:#ac8a8c" />
<rect x="30" y="150" width="45" height="45" style="fill:#060606" />
<rect x="90" y="150" width="45" height="45" style="fill:#020202" />
<rect x="150" y="150" width="45" height="45" style="fill:#ddb8ba" />
<rect x="210" y="150" width="45" height="45" style="fill:#e1ddbc" />
<rect x="270" y="150" width="45" height="45" style="fill:#bcdfbc" />
<rect x="330" y="150" width="45" height="45" style="fill:#bcdedf" />
<rect x="390" y="150" width="45" height="45" style="fill:#bcb6da" />
<rect x="450" y="150" width="45" height="45" style="fill:#ddb8dc" />
</svg>