<?xml version="1.0" encoding="UTF-8" ?>
<svg width="525" height="225" xmlns="http://www.w3.org/2000/svg">
<rect x="0" y="0" width="525" height="225" style="fill:#22273b" />
<rect x="30" y="30" width="45" height="45" style="fill:#22273b" />
<rect x="90" y="30" width="45" height="45" style="fill:#414f60" />
<rect x="150" y="30" width="45" height="45" style="fill:#5a8380" />
<rect x="210" y="30" width="45" height="45" style="fill:#6e6f72" />
<rect x="270" y="30" width="45" height="45" style="fill:#87888b" />
<rect x="330" y="30" width="45" height="45" style="fill:#a4a6a9" />
<rect x="390" y="30" width="45" height="45" style="fill:#c7c9cd" />
<rect x="450" y="30" width="45" height="45" style="fill:#8dbdaa" />
<rect x="30" y="90" width="45" height="45" style="fill:#777abc" />
<rect x="90" y="90" width="45" height="45" style="fill:#94929e" />
<rect x="150" y="90" width="45" height="45" style="fill:#4f9062" />
<rect x="210" y="90" width="45" height="45" style="fill:#6562a8" />
<rect x="270" y="90" width="45" height="45" style="fill:#226f68" />
<rect x="330" y="90" width="45" height="45" style="fill:#4d6bb6" />
<rect x="390" y="90" width="45" height="45" style="fill:#716cae" />
<rect x="450" y="90" width="45" height="45" style="fill:#8c70a7" />
<rect x="30" y="150" width="45" height="45" style="fill:#0c1124" />
<rect x="90" y="150" width="45" height="45" style="fill:#020417" />
<rect x="150" y="150" width="45" height="45" style="fill:#a9acf1" />
<rect x="210" y="150" width="45" height="45" style="fill:#81c492" />
<rect x="270" y="150" width="45" height="45" style="fill:#8f8dd5" />
<rect x="330" y="150" width="45" height="45" style="fill:#50978f" />
<rect x="390" y="150" width="45" height="45" style="fill:#7897e4" />
<rect x="450" y="150" width="45" height="45" style="fill:#9f9adf" />
</svg>