<?xml version="1.0" encoding="UTF-8" ?>
<svg width="525" height="225" xmlns="http://www.w3.org/2000/svg">
<rect x="0" y="0" width="525" height="225" style="fill:#282c34" />
<rect x="30" y="30" width="45" height="45" style="fill:#282c34" />
<rect x="90" y="30" width="45" height="45" style="fill:#353b45" />
<rect x="150" y="30" width="45" height="45" style="fill:#3e4451" />
<rect x="210" y="30" width="45" height="45" style="fill:#545862" />
<rect x="270" y="30" width="45" height="45" style="fill:#565c64" />
<rect x="330" y="30" width="45" height="45" style="fill:#abb2bf" />
<rect x="390" y="30" width="45" height="45" style="fill:#b6bdca" />
<rect x="450" y="30" width="45" height="45" style="fill:#c8ccd4" />
<rect x="30" y="90" width="45" height="45" style="fill:#e06c75" />
<rect x="90" y="90" width="45" height="45" style="fill:#d19a66" />
<rect x="150" y="90" width="45" height="45" style="fill:#e5c07b" />
<rect x="210" y="90" width="45" height="45" style="fill:#98c379" />
<rect x="270" y="90" width="45" height="45" style="fill:#56b6c2" />
<rect x="330" y="90" width="45" height="45" style="fill:#61afef" />
<rect x="390" y="90" width="45" height="45" style="fill:#c678dd" />
<rect x="450" y="90" width="45" height="45" style="fill:#be5046" />
<rect x="30" y="150" width="45" height="45" style="fill:#10141c" />
<rect x="90" y="150" width="45" height="45" style="fill:#03060e" />
<rect x="150" y="150" width="45" height="45" style="fill:#ffa4ac" />
<rect x="210" y="150" width="45" height="45" style="fill:#fff7ad" />
<rect x="270" y="150" width="45" height="45" style="fill:#dcffb9" />
<rect x="330" y="150" width="45" height="45" style="fill:#9af7ff" />
<rect x="390" y="150" width="45" height="45" style="fill:#a3f0ff" />
<rect x="450" y="150" width="45" height="45" style="fill:#ffb3ff" />
</svg>