<?xml version="1.0" encoding="UTF-8" ?>
<svg width="525" height="225" xmlns="http://www.w3.org/2000/svg">
<rect x="0" y="0" width="525" height="225" style="fill:#1c1c1c" />
<rect x="30" y="30" width="45" height="45" style="fill:#1c1c1c" />
<rect x="90" y="30" width="45" height="45" style="fill:#af005f" />
<rect x="150" y="30" width="45" height="45" style="fill:#5faf00" />
<rect x="210" y="30" width="45" height="45" style="fill:#d7af5f" />
<rect x="270" y="30" width="45" height="45" style="fill:#5fafd7" />
<rect x="330" y="30" width="45" height="45" style="fill:#808080" />
<rect x="390" y="30" width="45" height="45" style="fill:#d7875f" />
<rect x="450" y="30" width="45" height="45" style="fill:#d0d0d0" />
<rect x="30" y="90" width="45" height="45" style="fill:#585858" />
<rect x="90" y="90" width="45" height="45" style="fill:#5faf5f" />
<rect x="150" y="90" width="45" height="45" style="fill:#afd700" />
<rect x="210" y="90" width="45" height="45" style="fill:#af87d7" />
<rect x="270" y="90" width="45" height="45" style="fill:#ffaf00" />
<rect x="330" y="90" width="45" height="45" style="fill:#ff5faf" />
<rect x="390" y="90" width="45" height="45" style="fill:#00afaf" />
<rect x="450" y="90" width="45" height="45" style="fill:#5f8787" />
<rect x="30" y="150" width="45" height="45" style="fill:#0e0e0e" />
<rect x="90" y="150" width="45" height="45" style="fill:#050505" />
<rect x="150" y="150" width="45" height="45" style="fill:#757575" />
<rect x="210" y="150" width="45" height="45" style="fill:#e6ff4e" />
<rect x="270" y="150" width="45" height="45" style="fill:#e1b7ff" />
<rect x="330" y="150" width="45" height="45" style="fill:#ffea4b" />
<rect x="390" y="150" width="45" height="45" style="fill:#ff91e3" />
<rect x="450" y="150" width="45" height="45" style="fill:#5ce0e0" />
</svg>