<?xml version="1.0" encoding="UTF-8" ?>
<svg width="525" height="225" xmlns="http://www.w3.org/2000/svg">
<rect x="0" y="0" width="525" height="225" style="fill:#271C3A" />
<rect x="30" y="30" width="45" height="45" style="fill:#271C3A" />
<rect x="90" y="30" width="45" height="45" style="fill:#100323" />
<rect x="150" y="30" width="45" height="45" style="fill:#3E2D5C" />
<rect x="210" y="30" width="45" height="45" style="fill:#5D5766" />
<rect x="270" y="30" width="45" height="45" style="fill:#BEBCBF" />
<rect x="330" y="30" width="45" height="45" style="fill:#DEDCDF" />
<rect x="390" y="30" width="45" height="45" style="fill:#EDEAEF" />
<rect x="450" y="30" width="45" height="45" style="fill:#BBAADD" />
<rect x="30" y="90" width="45" height="45" style="fill:#A92258" />
<rect x="90" y="90" width="45" height="45" style="fill:#918889" />
<rect x="150" y="90" width="45" height="45" style="fill:#804ead" />
<rect x="210" y="90" width="45" height="45" style="fill:#C6914B" />
<rect x="270" y="90" width="45" height="45" style="fill:#7263AA" />
<rect x="330" y="90" width="45" height="45" style="fill:#8E7DC6" />
<rect x="390" y="90" width="45" height="45" style="fill:#953B9D" />
<rect x="450" y="90" width="45" height="45" style="fill:#59325C" />
<rect x="30" y="150" width="45" height="45" style="fill:#170c2a" />
<rect x="90" y="150" width="45" height="45" style="fill:#0d021f" />
<rect x="150" y="150" width="45" height="45" style="fill:#d24477" />
<rect x="210" y="150" width="45" height="45" style="fill:#a270d1" />
<rect x="270" y="150" width="45" height="45" style="fill:#fcc276" />
<rect x="330" y="150" width="45" height="45" style="fill:#9586d0" />
<rect x="390" y="150" width="45" height="45" style="fill:#b9a8f4" />
<rect x="450" y="150" width="45" height="45" style="fill:#ba5dc0" />
</svg>