<?xml version="1.0" encoding="UTF-8" ?>
<svg width="525" height="225" xmlns="http://www.w3.org/2000/svg">
<rect x="0" y="0" width="525" height="225" style="fill:#171517" />
<rect x="30" y="30" width="45" height="45" style="fill:#171517" />
<rect x="90" y="30" width="45" height="45" style="fill:#1b181b" />
<rect x="150" y="30" width="45" height="45" style="fill:#1d1b1d" />
<rect x="210" y="30" width="45" height="45" style="fill:#383338" />
<rect x="270" y="30" width="45" height="45" style="fill:#e7dbdb" />
<rect x="330" y="30" width="45" height="45" style="fill:#f5f5f5" />
<rect x="390" y="30" width="45" height="45" style="fill:#ffffff" />
<rect x="450" y="30" width="45" height="45" style="fill:#f7f3f7" />
<rect x="30" y="90" width="45" height="45" style="fill:#ffa600" />
<rect x="90" y="90" width="45" height="45" style="fill:#00ff66" />
<rect x="150" y="90" width="45" height="45" style="fill:#20df6c" />
<rect x="210" y="90" width="45" height="45" style="fill:#ff0066" />
<rect x="270" y="90" width="45" height="45" style="fill:#6600ff" />
<rect x="330" y="90" width="45" height="45" style="fill:#00ffff" />
<rect x="390" y="90" width="45" height="45" style="fill:#007fff" />
<rect x="450" y="90" width="45" height="45" style="fill:#df206c" />
<rect x="30" y="150" width="45" height="45" style="fill:#0b090b" />
<rect x="90" y="150" width="45" height="45" style="fill:#040304" />
<rect x="150" y="150" width="45" height="45" style="fill:#ffdf49" />
<rect x="210" y="150" width="45" height="45" style="fill:#73ffa1" />
<rect x="270" y="150" width="45" height="45" style="fill:#ff4b8f" />
<rect x="330" y="150" width="45" height="45" style="fill:#7c49ff" />
<rect x="390" y="150" width="45" height="45" style="fill:#57ffff" />
<rect x="450" y="150" width="45" height="45" style="fill:#49a9ff" />
</svg>