<?xml version="1.0" encoding="UTF-8" ?>
<svg width="525" height="225" xmlns="http://www.w3.org/2000/svg">
<rect x="0" y="0" width="525" height="225" style="fill:#292c36" />
<rect x="30" y="30" width="45" height="45" style="fill:#292c36" />
<rect x="90" y="30" width="45" height="45" style="fill:#333344" />
<rect x="150" y="30" width="45" height="45" style="fill:#474160" />
<rect x="210" y="30" width="45" height="45" style="fill:#65568a" />
<rect x="270" y="30" width="45" height="45" style="fill:#b8b8b8" />
<rect x="330" y="30" width="45" height="45" style="fill:#d8d8d8" />
<rect x="390" y="30" width="45" height="45" style="fill:#e8e8e8" />
<rect x="450" y="30" width="45" height="45" style="fill:#f8f8f8" />
<rect x="30" y="90" width="45" height="45" style="fill:#f84547" />
<rect x="90" y="90" width="45" height="45" style="fill:#d28e5d" />
<rect x="150" y="90" width="45" height="45" style="fill:#efa16b" />
<rect x="210" y="90" width="45" height="45" style="fill:#95c76f" />
<rect x="270" y="90" width="45" height="45" style="fill:#64878f" />
<rect x="330" y="90" width="45" height="45" style="fill:#8485ce" />
<rect x="390" y="90" width="45" height="45" style="fill:#b74989" />
<rect x="450" y="90" width="45" height="45" style="fill:#986841" />
<rect x="30" y="150" width="45" height="45" style="fill:#161923" />
<rect x="90" y="150" width="45" height="45" style="fill:#090c16" />
<rect x="150" y="150" width="45" height="45" style="fill:#ff726e" />
<rect x="210" y="150" width="45" height="45" style="fill:#ffd89d" />
<rect x="270" y="150" width="45" height="45" style="fill:#ccffa2" />
<rect x="330" y="150" width="45" height="45" style="fill:#8cb0b8" />
<rect x="390" y="150" width="45" height="45" style="fill:#b0b1fd" />
<rect x="450" y="150" width="45" height="45" style="fill:#e46fb0" />
</svg>