<?xml version="1.0" encoding="UTF-8" ?>
<svg width="525" height="225" xmlns="http://www.w3.org/2000/svg">
<rect x="0" y="0" width="525" height="225" style="fill:#23262b" />
<rect x="30" y="30" width="45" height="45" style="fill:#23262b" />
<rect x="90" y="30" width="45" height="45" style="fill:#303337" />
<rect x="150" y="30" width="45" height="45" style="fill:#3e4044" />
<rect x="210" y="30" width="45" height="45" style="fill:#898989" />
<rect x="270" y="30" width="45" height="45" style="fill:#abaaa8" />
<rect x="330" y="30" width="45" height="45" style="fill:#bab9b6" />
<rect x="390" y="30" width="45" height="45" style="fill:#bab9b6" />
<rect x="450" y="30" width="45" height="45" style="fill:#bab9b6" />
<rect x="30" y="90" width="45" height="45" style="fill:#ff8782" />
<rect x="90" y="90" width="45" height="45" style="fill:#e99857" />
<rect x="150" y="90" width="45" height="45" style="fill:#cfa546" />
<rect x="210" y="90" width="45" height="45" style="fill:#95b659" />
<rect x="270" y="90" width="45" height="45" style="fill:#42bda7" />
<rect x="330" y="90" width="45" height="45" style="fill:#66b0ef" />
<rect x="390" y="90" width="45" height="45" style="fill:#b799ff" />
<rect x="450" y="90" width="45" height="45" style="fill:#f382d8" />
<rect x="30" y="150" width="45" height="45" style="fill:#0e1115" />
<rect x="90" y="150" width="45" height="45" style="fill:#030508" />
<rect x="150" y="150" width="45" height="45" style="fill:#ffc8c1" />
<rect x="210" y="150" width="45" height="45" style="fill:#ffe780" />
<rect x="270" y="150" width="45" height="45" style="fill:#d5f993" />
<rect x="330" y="150" width="45" height="45" style="fill:#8bffe7" />
<rect x="390" y="150" width="45" height="45" style="fill:#a8f1ff" />
<rect x="450" y="150" width="45" height="45" style="fill:#fadbff" />
</svg>