<?xml version="1.0" encoding="UTF-8" ?>
<svg width="525" height="225" xmlns="http://www.w3.org/2000/svg">
<rect x="0" y="0" width="525" height="225" style="fill:#ffffff" />
<rect x="30" y="30" width="45" height="45" style="fill:#ffffff" />
<rect x="90" y="30" width="45" height="45" style="fill:#ededed" />
<rect x="150" y="30" width="45" height="45" style="fill:#dbdbdb" />
<rect x="210" y="30" width="45" height="45" style="fill:#848484" />
<rect x="270" y="30" width="45" height="45" style="fill:#636363" />
<rect x="330" y="30" width="45" height="45" style="fill:#555555" />
<rect x="390" y="30" width="45" height="45" style="fill:#555555" />
<rect x="450" y="30" width="45" height="45" style="fill:#555555" />
<rect x="30" y="90" width="45" height="45" style="fill:#af4947" />
<rect x="90" y="90" width="45" height="45" style="fill:#a0570d" />
<rect x="150" y="90" width="45" height="45" style="fill:#876500" />
<rect x="210" y="90" width="45" height="45" style="fill:#557301" />
<rect x="270" y="90" width="45" height="45" style="fill:#087767" />
<rect x="330" y="90" width="45" height="45" style="fill:#186daa" />
<rect x="390" y="90" width="45" height="45" style="fill:#7b4ecb" />
<rect x="450" y="90" width="45" height="45" style="fill:#a93e93" />
<rect x="30" y="150" width="45" height="45" style="fill:#a7a8a8" />
<rect x="90" y="150" width="45" height="45" style="fill:#6c6d6e" />
<rect x="150" y="150" width="45" height="45" style="fill:#db6b67" />
<rect x="210" y="150" width="45" height="45" style="fill:#ad8827" />
<rect x="270" y="150" width="45" height="45" style="fill:#759628" />
<rect x="330" y="150" width="45" height="45" style="fill:#3e9988" />
<rect x="390" y="150" width="45" height="45" style="fill:#458fcd" />
<rect x="450" y="150" width="45" height="45" style="fill:#9d73f0" />
</svg>