<?xml version="1.0" encoding="UTF-8" ?>
<svg width="525" height="225" xmlns="http://www.w3.org/2000/svg">
<rect x="0" y="0" width="525" height="225" style="fill:#1c2128" />
<rect x="30" y="30" width="45" height="45" style="fill:#1c2128" />
<rect x="90" y="30" width="45" height="45" style="fill:#373e47" />
<rect x="150" y="30" width="45" height="45" style="fill:#444c56" />
<rect x="210" y="30" width="45" height="45" style="fill:#545d68" />
<rect x="270" y="30" width="45" height="45" style="fill:#768390" />
<rect x="330" y="30" width="45" height="45" style="fill:#909dab" />
<rect x="390" y="30" width="45" height="45" style="fill:#adbac7" />
<rect x="450" y="30" width="45" height="45" style="fill:#cdd9e5" />
<rect x="30" y="90" width="45" height="45" style="fill:#f47067" />
<rect x="90" y="90" width="45" height="45" style="fill:#e0823d" />
<rect x="150" y="90" width="45" height="45" style="fill:#c69026" />
<rect x="210" y="90" width="45" height="45" style="fill:#57ab5a" />
<rect x="270" y="90" width="45" height="45" style="fill:#96d0ff" />
<rect x="330" y="90" width="45" height="45" style="fill:#539bf5" />
<rect x="390" y="90" width="45" height="45" style="fill:#e275ad" />
<rect x="450" y="90" width="45" height="45" style="fill:#ae5622" />
<rect x="30" y="150" width="45" height="45" style="fill:#090e14" />
<rect x="90" y="150" width="45" height="45" style="fill:#010408" />
<rect x="150" y="150" width="45" height="45" style="fill:#ffab9f" />
<rect x="210" y="150" width="45" height="45" style="fill:#ffcc5c" />
<rect x="270" y="150" width="45" height="45" style="fill:#91e88f" />
<rect x="330" y="150" width="45" height="45" style="fill:#cdffff" />
<rect x="390" y="150" width="45" height="45" style="fill:#90d7ff" />
<rect x="450" y="150" width="45" height="45" style="fill:#ffb1ec" />
</svg>