<?xml version="1.0" encoding="UTF-8" ?>
<svg width="525" height="225" xmlns="http://www.w3.org/2000/svg">
<rect x="0" y="0" width="525" height="225" style="fill:#010409" />
<rect x="30" y="30" width="45" height="45" style="fill:#010409" />
<rect x="90" y="30" width="45" height="45" style="fill:#21262d" />
<rect x="150" y="30" width="45" height="45" style="fill:#30363d" />
<rect x="210" y="30" width="45" height="45" style="fill:#484f58" />
<rect x="270" y="30" width="45" height="45" style="fill:#8b949e" />
<rect x="330" y="30" width="45" height="45" style="fill:#b1bac4" />
<rect x="390" y="30" width="45" height="45" style="fill:#c9d1d9" />
<rect x="450" y="30" width="45" height="45" style="fill:#f0f6fc" />
<rect x="30" y="90" width="45" height="45" style="fill:#ff7b72" />
<rect x="90" y="90" width="45" height="45" style="fill:#f0883e" />
<rect x="150" y="90" width="45" height="45" style="fill:#d29922" />
<rect x="210" y="90" width="45" height="45" style="fill:#3fb950" />
<rect x="270" y="90" width="45" height="45" style="fill:#a5d6ff" />
<rect x="330" y="90" width="45" height="45" style="fill:#58a6ff" />
<rect x="390" y="90" width="45" height="45" style="fill:#f778ba" />
<rect x="450" y="90" width="45" height="45" style="fill:#bd561d" />
<rect x="30" y="150" width="45" height="45" style="fill:#000104" />
<rect x="90" y="150" width="45" height="45" style="fill:#000002" />
<rect x="150" y="150" width="45" height="45" style="fill:#ffbaae" />
<rect x="210" y="150" width="45" height="45" style="fill:#ffd85c" />
<rect x="270" y="150" width="45" height="45" style="fill:#80fa87" />
<rect x="330" y="150" width="45" height="45" style="fill:#d5ffff" />
<rect x="390" y="150" width="45" height="45" style="fill:#99e5ff" />
<rect x="450" y="150" width="45" height="45" style="fill:#ffb8fd" />
</svg>