<?xml version="1.0" encoding="UTF-8" ?>
<svg width="525" height="225" xmlns="http://www.w3.org/2000/svg">
<rect x="0" y="0" width="525" height="225" style="fill:#100510" />
<rect x="30" y="30" width="45" height="45" style="fill:#100510" />
<rect x="90" y="30" width="45" height="45" style="fill:#302030" />
<rect x="150" y="30" width="45" height="45" style="fill:#403040" />
<rect x="210" y="30" width="45" height="45" style="fill:#605060" />
<rect x="270" y="30" width="45" height="45" style="fill:#bbb0bb" />
<rect x="330" y="30" width="45" height="45" style="fill:#ddd0dd" />
<rect x="390" y="30" width="45" height="45" style="fill:#eee0ee" />
<rect x="450" y="30" width="45" height="45" style="fill:#fff0ff" />
<rect x="30" y="90" width="45" height="45" style="fill:#FF1D0D" />
<rect x="90" y="90" width="45" height="45" style="fill:#CCAE14" />
<rect x="150" y="90" width="45" height="45" style="fill:#F000A0" />
<rect x="210" y="90" width="45" height="45" style="fill:#14CC64" />
<rect x="270" y="90" width="45" height="45" style="fill:#0075B0" />
<rect x="330" y="90" width="45" height="45" style="fill:#00A0F0" />
<rect x="390" y="90" width="45" height="45" style="fill:#B000D0" />
<rect x="450" y="90" width="45" height="45" style="fill:#6A2A3C" />
<rect x="30" y="150" width="45" height="45" style="fill:#080108" />
<rect x="90" y="150" width="45" height="45" style="fill:#040004" />
<rect x="150" y="150" width="45" height="45" style="fill:#ff5234" />
<rect x="210" y="150" width="45" height="45" style="fill:#ff4dcd" />
<rect x="270" y="150" width="45" height="45" style="fill:#66ff95" />
<rect x="330" y="150" width="45" height="45" style="fill:#4098d5" />
<rect x="390" y="150" width="45" height="45" style="fill:#5ad0ff" />
<rect x="450" y="150" width="45" height="45" style="fill:#d846f6" />
</svg>