<?xml version="1.0" encoding="UTF-8" ?>
<svg width="525" height="225" xmlns="http://www.w3.org/2000/svg">
<rect x="0" y="0" width="525" height="225" style="fill:#292a44" />
<rect x="30" y="30" width="45" height="45" style="fill:#292a44" />
<rect x="90" y="30" width="45" height="45" style="fill:#663399" />
<rect x="150" y="30" width="45" height="45" style="fill:#383a62" />
<rect x="210" y="30" width="45" height="45" style="fill:#666699" />
<rect x="270" y="30" width="45" height="45" style="fill:#a0a0c5" />
<rect x="330" y="30" width="45" height="45" style="fill:#f1eff8" />
<rect x="390" y="30" width="45" height="45" style="fill:#ccccff" />
<rect x="450" y="30" width="45" height="45" style="fill:#53495d" />
<rect x="30" y="90" width="45" height="45" style="fill:#a0a0c5" />
<rect x="90" y="90" width="45" height="45" style="fill:#efe4a1" />
<rect x="150" y="90" width="45" height="45" style="fill:#ae81ff" />
<rect x="210" y="90" width="45" height="45" style="fill:#6dfedf" />
<rect x="270" y="90" width="45" height="45" style="fill:#8eaee0" />
<rect x="330" y="90" width="45" height="45" style="fill:#2de0a7" />
<rect x="390" y="90" width="45" height="45" style="fill:#7aa5ff" />
<rect x="450" y="90" width="45" height="45" style="fill:#ff79c6" />
<rect x="30" y="150" width="45" height="45" style="fill:#161730" />
<rect x="90" y="150" width="45" height="45" style="fill:#0a0923" />
<rect x="150" y="150" width="45" height="45" style="fill:#d3d3fa" />
<rect x="210" y="150" width="45" height="45" style="fill:#dfb2ff" />
<rect x="270" y="150" width="45" height="45" style="fill:#8efffc" />
<rect x="330" y="150" width="45" height="45" style="fill:#c3e3ff" />
<rect x="390" y="150" width="45" height="45" style="fill:#7effe1" />
<rect x="450" y="150" width="45" height="45" style="fill:#add9ff" />
</svg>