<?xml version="1.0" encoding="UTF-8" ?>
<svg width="525" height="225" xmlns="http://www.w3.org/2000/svg">
<rect x="0" y="0" width="525" height="225" style="fill:#faf4ed" />
<rect x="30" y="30" width="45" height="45" style="fill:#faf4ed" />
<rect x="90" y="30" width="45" height="45" style="fill:#fffaf3" />
<rect x="150" y="30" width="45" height="45" style="fill:#f2e9de" />
<rect x="210" y="30" width="45" height="45" style="fill:#9893a5" />
<rect x="270" y="30" width="45" height="45" style="fill:#797593" />
<rect x="330" y="30" width="45" height="45" style="fill:#575279" />
<rect x="390" y="30" width="45" height="45" style="fill:#575279" />
<rect x="450" y="30" width="45" height="45" style="fill:#cecacd" />
<rect x="30" y="90" width="45" height="45" style="fill:#b4637a" />
<rect x="90" y="90" width="45" height="45" style="fill:#ea9d34" />
<rect x="150" y="90" width="45" height="45" style="fill:#d7827e" />
<rect x="210" y="90" width="45" height="45" style="fill:#286983" />
<rect x="270" y="90" width="45" height="45" style="fill:#56949f" />
<rect x="330" y="90" width="45" height="45" style="fill:#907aa9" />
<rect x="390" y="90" width="45" height="45" style="fill:#ea9d34" />
<rect x="450" y="90" width="45" height="45" style="fill:#cecacd" />
<rect x="30" y="150" width="45" height="45" style="fill:#8e8a84" />
<rect x="90" y="150" width="45" height="45" style="fill:#4e4c47" />
<rect x="150" y="150" width="45" height="45" style="fill:#ee94ac" />
<rect x="210" y="150" width="45" height="45" style="fill:#ffbdb8" />
<rect x="270" y="150" width="45" height="45" style="fill:#5390ab" />
<rect x="330" y="150" width="45" height="45" style="fill:#8ccad6" />
<rect x="390" y="150" width="45" height="45" style="fill:#c5addf" />
<rect x="450" y="150" width="45" height="45" style="fill:#ffe06f" />
</svg>