<?xml version="1.0" encoding="UTF-8" ?>
<svg width="525" height="225" xmlns="http://www.w3.org/2000/svg">
<rect x="0" y="0" width="525" height="225" style="fill:#ffffff" />
<rect x="30" y="30" width="45" height="45" style="fill:#ffffff" />
<rect x="90" y="30" width="45" height="45" style="fill:#ebebeb" />
<rect x="150" y="30" width="45" height="45" style="fill:#cdcdcd" />
<rect x="210" y="30" width="45" height="45" style="fill:#878787" />
<rect x="270" y="30" width="45" height="45" style="fill:#878787" />
<rect x="330" y="30" width="45" height="45" style="fill:#474747" />
<rect x="390" y="30" width="45" height="45" style="fill:#282828" />
<rect x="450" y="30" width="45" height="45" style="fill:#282828" />
<rect x="30" y="90" width="45" height="45" style="fill:#bf0000" />
<rect x="90" y="90" width="45" height="45" style="fill:#ba3700" />
<rect x="150" y="90" width="45" height="45" style="fill:#af8500" />
<rect x="210" y="90" width="45" height="45" style="fill:#008400" />
<rect x="270" y="90" width="45" height="45" style="fill:#009a8a" />
<rect x="330" y="90" width="45" height="45" style="fill:#0054cf" />
<rect x="390" y="90" width="45" height="45" style="fill:#6b40c3" />
<rect x="450" y="90" width="45" height="45" style="fill:#dd0f9d" />
<rect x="30" y="150" width="45" height="45" style="fill:#909191" />
<rect x="90" y="150" width="45" height="45" style="fill:#4e5050" />
<rect x="150" y="150" width="45" height="45" style="fill:#f93b24" />
<rect x="210" y="150" width="45" height="45" style="fill:#ebbc3f" />
<rect x="270" y="150" width="45" height="45" style="fill:#43b334" />
<rect x="330" y="150" width="45" height="45" style="fill:#5bd0be" />
<rect x="390" y="150" width="45" height="45" style="fill:#387cf4" />
<rect x="450" y="150" width="45" height="45" style="fill:#8f6aeb" />
</svg>