<?xml version="1.0" encoding="UTF-8" ?>
<svg width="525" height="225" xmlns="http://www.w3.org/2000/svg">
<rect x="0" y="0" width="525" height="225" style="fill:#fbf3db" />
<rect x="30" y="30" width="45" height="45" style="fill:#fbf3db" />
<rect x="90" y="30" width="45" height="45" style="fill:#ece3cc" />
<rect x="150" y="30" width="45" height="45" style="fill:#d5cdb6" />
<rect x="210" y="30" width="45" height="45" style="fill:#909995" />
<rect x="270" y="30" width="45" height="45" style="fill:#909995" />
<rect x="330" y="30" width="45" height="45" style="fill:#53676d" />
<rect x="390" y="30" width="45" height="45" style="fill:#3a4d53" />
<rect x="450" y="30" width="45" height="45" style="fill:#3a4d53" />
<rect x="30" y="90" width="45" height="45" style="fill:#cc1729" />
<rect x="90" y="90" width="45" height="45" style="fill:#bc5819" />
<rect x="150" y="90" width="45" height="45" style="fill:#a78300" />
<rect x="210" y="90" width="45" height="45" style="fill:#428b00" />
<rect x="270" y="90" width="45" height="45" style="fill:#00978a" />
<rect x="330" y="90" width="45" height="45" style="fill:#006dce" />
<rect x="390" y="90" width="45" height="45" style="fill:#825dc0" />
<rect x="450" y="90" width="45" height="45" style="fill:#c44392" />
<rect x="30" y="150" width="45" height="45" style="fill:#fffee6" />
<rect x="90" y="150" width="45" height="45" style="fill:#ffffe8" />
<rect x="150" y="150" width="45" height="45" style="fill:#ff4b4e" />
<rect x="210" y="150" width="45" height="45" style="fill:#e1b93e" />
<rect x="270" y="150" width="45" height="45" style="fill:#6fbd38" />
<rect x="330" y="150" width="45" height="45" style="fill:#59ccbd" />
<rect x="390" y="150" width="45" height="45" style="fill:#4899fb" />
<rect x="450" y="150" width="45" height="45" style="fill:#b08bf1" />
</svg>