<?xml version="1.0" encoding="UTF-8" ?>
<svg width="525" height="225" xmlns="http://www.w3.org/2000/svg">
<rect x="0" y="0" width="525" height="225" style="fill:#fbf3db" />
<rect x="30" y="30" width="45" height="45" style="fill:#fbf3db" />
<rect x="90" y="30" width="45" height="45" style="fill:#ece3cc" />
<rect x="150" y="30" width="45" height="45" style="fill:#d5cdb6" />
<rect x="210" y="30" width="45" height="45" style="fill:#909995" />
<rect x="270" y="30" width="45" height="45" style="fill:#909995" />
<rect x="330" y="30" width="45" height="45" style="fill:#53676d" />
<rect x="390" y="30" width="45" height="45" style="fill:#3a4d53" />
<rect x="450" y="30" width="45" height="45" style="fill:#3a4d53" />
<rect x="30" y="90" width="45" height="45" style="fill:#cc1729" />
<rect x="90" y="90" width="45" height="45" style="fill:#bc5819" />
<rect x="150" y="90" width="45" height="45" style="fill:#a78300" />
<rect x="210" y="90" width="45" height="45" style="fill:#428b00" />
<rect x="270" y="90" width="45" height="45" style="fill:#00978a" />
<rect x="330" y="90" width="45" height="45" style="fill:#006dce" />
<rect x="390" y="90" width="45" height="45" style="fill:#825dc0" />
<rect x="450" y="90" width="45" height="45" style="fill:#c44392" />
<rect x="30" y="150" width="45" height="45" style="fill:#a6a08b" />
<rect x="90" y="150" width="45" height="45" style="fill:#6d6855" />
<rect x="150" y="150" width="45" height="45" style="fill:#fe4246" />
<rect x="210" y="150" width="45" height="45" style="fill:#d6ae34" />
<rect x="270" y="150" width="45" height="45" style="fill:#66b430" />
<rect x="330" y="150" width="45" height="45" style="fill:#4dc2b3" />
<rect x="390" y="150" width="45" height="45" style="fill:#3e91f2" />
<rect x="450" y="150" width="45" height="45" style="fill:#a782e7" />
</svg>