<?xml version="1.0" encoding="UTF-8" ?>
<svg width="525" height="225" xmlns="http://www.w3.org/2000/svg">
<rect x="0" y="0" width="525" height="225" style="fill:#151718" />
<rect x="30" y="30" width="45" height="45" style="fill:#151718" />
<rect x="90" y="30" width="45" height="45" style="fill:#282a2b" />
<rect x="150" y="30" width="45" height="45" style="fill:#3B758C" />
<rect x="210" y="30" width="45" height="45" style="fill:#41535B" />
<rect x="270" y="30" width="45" height="45" style="fill:#43a5d5" />
<rect x="330" y="30" width="45" height="45" style="fill:#d6d6d6" />
<rect x="390" y="30" width="45" height="45" style="fill:#eeeeee" />
<rect x="450" y="30" width="45" height="45" style="fill:#ffffff" />
<rect x="30" y="90" width="45" height="45" style="fill:#Cd3f45" />
<rect x="90" y="90" width="45" height="45" style="fill:#db7b55" />
<rect x="150" y="90" width="45" height="45" style="fill:#e6cd69" />
<rect x="210" y="90" width="45" height="45" style="fill:#9fca56" />
<rect x="270" y="90" width="45" height="45" style="fill:#55dbbe" />
<rect x="330" y="90" width="45" height="45" style="fill:#55b5db" />
<rect x="390" y="90" width="45" height="45" style="fill:#a074c4" />
<rect x="450" y="90" width="45" height="45" style="fill:#8a553f" />
<rect x="30" y="150" width="45" height="45" style="fill:#060809" />
<rect x="90" y="150" width="45" height="45" style="fill:#010202" />
<rect x="150" y="150" width="45" height="45" style="fill:#ff6e6f" />
<rect x="210" y="150" width="45" height="45" style="fill:#fffd93" />
<rect x="270" y="150" width="45" height="45" style="fill:#e1ff93" />
<rect x="330" y="150" width="45" height="45" style="fill:#9afffb" />
<rect x="390" y="150" width="45" height="45" style="fill:#9af6ff" />
<rect x="450" y="150" width="45" height="45" style="fill:#d7a9fd" />
</svg>