<?xml version="1.0" encoding="UTF-8" ?>
<svg width="525" height="225" xmlns="http://www.w3.org/2000/svg">
<rect x="0" y="0" width="525" height="225" style="fill:#f9f9f9" />
<rect x="30" y="30" width="45" height="45" style="fill:#f9f9f9" />
<rect x="90" y="30" width="45" height="45" style="fill:#e0e0e0" />
<rect x="150" y="30" width="45" height="45" style="fill:#ababab" />
<rect x="210" y="30" width="45" height="45" style="fill:#555555" />
<rect x="270" y="30" width="45" height="45" style="fill:#343434" />
<rect x="330" y="30" width="45" height="45" style="fill:#102015" />
<rect x="390" y="30" width="45" height="45" style="fill:#040404" />
<rect x="450" y="30" width="45" height="45" style="fill:#000000" />
<rect x="30" y="90" width="45" height="45" style="fill:#e92f2f" />
<rect x="90" y="90" width="45" height="45" style="fill:#e09448" />
<rect x="150" y="90" width="45" height="45" style="fill:#dddd13" />
<rect x="210" y="90" width="45" height="45" style="fill:#0ed839" />
<rect x="270" y="90" width="45" height="45" style="fill:#23edda" />
<rect x="330" y="90" width="45" height="45" style="fill:#3b48e3" />
<rect x="390" y="90" width="45" height="45" style="fill:#f996e2" />
<rect x="450" y="90" width="45" height="45" style="fill:#69542d" />
<rect x="30" y="150" width="45" height="45" style="fill:#8c8d8e" />
<rect x="90" y="150" width="45" height="45" style="fill:#4c4e4f" />
<rect x="150" y="150" width="45" height="45" style="fill:#ff6459" />
<rect x="210" y="150" width="45" height="45" style="fill:#ffff46" />
<rect x="270" y="150" width="45" height="45" style="fill:#75ff79" />
<rect x="330" y="150" width="45" height="45" style="fill:#72ffff" />
<rect x="390" y="150" width="45" height="45" style="fill:#5b74ff" />
<rect x="450" y="150" width="45" height="45" style="fill:#ffd7ff" />
</svg>