<?xml version="1.0" encoding="UTF-8" ?>
<svg width="525" height="225" xmlns="http://www.w3.org/2000/svg">
<rect x="0" y="0" width="525" height="225" style="fill:#0e3c46" />
<rect x="30" y="30" width="45" height="45" style="fill:#0e3c46" />
<rect x="90" y="30" width="45" height="45" style="fill:#1D494E" />
<rect x="150" y="30" width="45" height="45" style="fill:#2A5054" />
<rect x="210" y="30" width="45" height="45" style="fill:#587073" />
<rect x="270" y="30" width="45" height="45" style="fill:#9DC8CD" />
<rect x="330" y="30" width="45" height="45" style="fill:#C7DBDD" />
<rect x="390" y="30" width="45" height="45" style="fill:#CBF2F7" />
<rect x="450" y="30" width="45" height="45" style="fill:#D2FAFF" />
<rect x="30" y="90" width="45" height="45" style="fill:#fb6953" />
<rect x="90" y="90" width="45" height="45" style="fill:#fcab74" />
<rect x="150" y="90" width="45" height="45" style="fill:#fce380" />
<rect x="210" y="90" width="45" height="45" style="fill:#73d8ad" />
<rect x="270" y="90" width="45" height="45" style="fill:#3fb2b9" />
<rect x="330" y="90" width="45" height="45" style="fill:#46bddd" />
<rect x="390" y="90" width="45" height="45" style="fill:#756b8a" />
<rect x="450" y="90" width="45" height="45" style="fill:#9b647b" />
<rect x="30" y="150" width="45" height="45" style="fill:#002029" />
<rect x="90" y="150" width="45" height="45" style="fill:#000e17" />
<rect x="150" y="150" width="45" height="45" style="fill:#ffa488" />
<rect x="210" y="150" width="45" height="45" style="fill:#fffd97" />
<rect x="270" y="150" width="45" height="45" style="fill:#b1ffe9" />
<rect x="330" y="150" width="45" height="45" style="fill:#86f1f8" />
<rect x="390" y="150" width="45" height="45" style="fill:#92ffff" />
<rect x="450" y="150" width="45" height="45" style="fill:#a297b8" />
</svg>