<?xml version="1.0" encoding="UTF-8" ?>
<svg width="525" height="225" xmlns="http://www.w3.org/2000/svg">
<rect x="0" y="0" width="525" height="225" style="fill:#282a36" />
<rect x="30" y="30" width="45" height="45" style="fill:#282a36" />
<rect x="90" y="30" width="45" height="45" style="fill:#34353e" />
<rect x="150" y="30" width="45" height="45" style="fill:#43454f" />
<rect x="210" y="30" width="45" height="45" style="fill:#78787e" />
<rect x="270" y="30" width="45" height="45" style="fill:#a5a5a9" />
<rect x="330" y="30" width="45" height="45" style="fill:#e2e4e5" />
<rect x="390" y="30" width="45" height="45" style="fill:#eff0eb" />
<rect x="450" y="30" width="45" height="45" style="fill:#f1f1f0" />
<rect x="30" y="90" width="45" height="45" style="fill:#ff5c57" />
<rect x="90" y="90" width="45" height="45" style="fill:#ff9f43" />
<rect x="150" y="90" width="45" height="45" style="fill:#f3f99d" />
<rect x="210" y="90" width="45" height="45" style="fill:#5af78e" />
<rect x="270" y="90" width="45" height="45" style="fill:#9aedfe" />
<rect x="330" y="90" width="45" height="45" style="fill:#57c7ff" />
<rect x="390" y="90" width="45" height="45" style="fill:#ff6ac1" />
<rect x="450" y="90" width="45" height="45" style="fill:#b2643c" />
<rect x="30" y="150" width="45" height="45" style="fill:#11131e" />
<rect x="90" y="150" width="45" height="45" style="fill:#040510" />
<rect x="150" y="150" width="45" height="45" style="fill:#ff968c" />
<rect x="210" y="150" width="45" height="45" style="fill:#ffffa8" />
<rect x="270" y="150" width="45" height="45" style="fill:#88ffb4" />
<rect x="330" y="150" width="45" height="45" style="fill:#bcffff" />
<rect x="390" y="150" width="45" height="45" style="fill:#a4ffff" />
<rect x="450" y="150" width="45" height="45" style="fill:#ffaaff" />
</svg>