<?xml version="1.0" encoding="UTF-8" ?>
<svg width="525" height="225" xmlns="http://www.w3.org/2000/svg">
<rect x="0" y="0" width="525" height="225" style="fill:#ffffff" />
<rect x="30" y="30" width="45" height="45" style="fill:#ffffff" />
<rect x="90" y="30" width="45" height="45" style="fill:#eeeeee" />
<rect x="150" y="30" width="45" height="45" style="fill:#cccccc" />
<rect x="210" y="30" width="45" height="45" style="fill:#767676" />
<rect x="270" y="30" width="45" height="45" style="fill:#767676" />
<rect x="330" y="30" width="45" height="45" style="fill:#444444" />
<rect x="390" y="30" width="45" height="45" style="fill:#333333" />
<rect x="450" y="30" width="45" height="45" style="fill:#222222" />
<rect x="30" y="90" width="45" height="45" style="fill:#d03e3e" />
<rect x="90" y="90" width="45" height="45" style="fill:#d7691d" />
<rect x="150" y="90" width="45" height="45" style="fill:#ad8200" />
<rect x="210" y="90" width="45" height="45" style="fill:#31861f" />
<rect x="270" y="90" width="45" height="45" style="fill:#00998f" />
<rect x="330" y="90" width="45" height="45" style="fill:#3173c5" />
<rect x="390" y="90" width="45" height="45" style="fill:#9e57c2" />
<rect x="450" y="90" width="45" height="45" style="fill:#895025" />
<rect x="30" y="150" width="45" height="45" style="fill:#a7a8a8" />
<rect x="90" y="150" width="45" height="45" style="fill:#6c6d6e" />
<rect x="150" y="150" width="45" height="45" style="fill:#ff645f" />
<rect x="210" y="150" width="45" height="45" style="fill:#ddad34" />
<rect x="270" y="150" width="45" height="45" style="fill:#56ad41" />
<rect x="330" y="150" width="45" height="45" style="fill:#4fc4b9" />
<rect x="390" y="150" width="45" height="45" style="fill:#5998eb" />
<rect x="450" y="150" width="45" height="45" style="fill:#c77eec" />
</svg>