<?xml version="1.0" encoding="UTF-8" ?>
<svg width="525" height="225" xmlns="http://www.w3.org/2000/svg">
<rect x="0" y="0" width="525" height="225" style="fill:#151515" />
<rect x="30" y="30" width="45" height="45" style="fill:#151515" />
<rect x="90" y="30" width="45" height="45" style="fill:#202020" />
<rect x="150" y="30" width="45" height="45" style="fill:#303030" />
<rect x="210" y="30" width="45" height="45" style="fill:#505050" />
<rect x="270" y="30" width="45" height="45" style="fill:#B0B0B0" />
<rect x="330" y="30" width="45" height="45" style="fill:#D0D0D0" />
<rect x="390" y="30" width="45" height="45" style="fill:#E0E0E0" />
<rect x="450" y="30" width="45" height="45" style="fill:#FFFFFF" />
<rect x="30" y="90" width="45" height="45" style="fill:#FF0086" />
<rect x="90" y="90" width="45" height="45" style="fill:#FD8900" />
<rect x="150" y="90" width="45" height="45" style="fill:#ABA800" />
<rect x="210" y="90" width="45" height="45" style="fill:#00C918" />
<rect x="270" y="90" width="45" height="45" style="fill:#1FAAAA" />
<rect x="330" y="90" width="45" height="45" style="fill:#3777E6" />
<rect x="390" y="90" width="45" height="45" style="fill:#AD00A1" />
<rect x="450" y="90" width="45" height="45" style="fill:#CC6633" />
<rect x="30" y="150" width="45" height="45" style="fill:#090909" />
<rect x="90" y="150" width="45" height="45" style="fill:#030303" />
<rect x="150" y="150" width="45" height="45" style="fill:#ff4eb2" />
<rect x="210" y="150" width="45" height="45" style="fill:#dedc41" />
<rect x="270" y="150" width="45" height="45" style="fill:#5bff50" />
<rect x="330" y="150" width="45" height="45" style="fill:#62dada" />
<rect x="390" y="150" width="45" height="45" style="fill:#609fff" />
<rect x="450" y="150" width="45" height="45" style="fill:#d53cc5" />
</svg>