<?xml version="1.0" encoding="UTF-8" ?>
<svg width="525" height="225" xmlns="http://www.w3.org/2000/svg">
<rect x="0" y="0" width="525" height="225" style="fill:#dddfe0" />
<rect x="30" y="30" width="45" height="45" style="fill:#dddfe0" />
<rect x="90" y="30" width="45" height="45" style="fill:#cfd1d2" />
<rect x="150" y="30" width="45" height="45" style="fill:#c1c3c4" />
<rect x="210" y="30" width="45" height="45" style="fill:#a3a5a6" />
<rect x="270" y="30" width="45" height="45" style="fill:#474849" />
<rect x="330" y="30" width="45" height="45" style="fill:#28292a" />
<rect x="390" y="30" width="45" height="45" style="fill:#1a1b1c" />
<rect x="450" y="30" width="45" height="45" style="fill:#050608" />
<rect x="30" y="90" width="45" height="45" style="fill:#b53b50" />
<rect x="90" y="90" width="45" height="45" style="fill:#ea770d" />
<rect x="150" y="90" width="45" height="45" style="fill:#c9d364" />
<rect x="210" y="90" width="45" height="45" style="fill:#06ea61" />
<rect x="270" y="90" width="45" height="45" style="fill:#42fff9" />
<rect x="330" y="90" width="45" height="45" style="fill:#03aeff" />
<rect x="390" y="90" width="45" height="45" style="fill:#ea5ce2" />
<rect x="450" y="90" width="45" height="45" style="fill:#cd6320" />
<rect x="30" y="150" width="45" height="45" style="fill:#7b7e7f" />
<rect x="90" y="150" width="45" height="45" style="fill:#424546" />
<rect x="150" y="150" width="45" height="45" style="fill:#ec6578" />
<rect x="210" y="150" width="45" height="45" style="fill:#fdff91" />
<rect x="270" y="150" width="45" height="45" style="fill:#6dff95" />
<rect x="330" y="150" width="45" height="45" style="fill:#6effff" />
<rect x="390" y="150" width="45" height="45" style="fill:#71eeff" />
<rect x="450" y="150" width="45" height="45" style="fill:#ff9bff" />
</svg>