<?xml version="1.0" encoding="UTF-8" ?>
<svg width="525" height="225" xmlns="http://www.w3.org/2000/svg">
<rect x="0" y="0" width="525" height="225" style="fill:#2e3436" />
<rect x="30" y="30" width="45" height="45" style="fill:#2e3436" />
<rect x="90" y="30" width="45" height="45" style="fill:#8ae234" />
<rect x="150" y="30" width="45" height="45" style="fill:#fce94f" />
<rect x="210" y="30" width="45" height="45" style="fill:#555753" />
<rect x="270" y="30" width="45" height="45" style="fill:#729fcf" />
<rect x="330" y="30" width="45" height="45" style="fill:#d3d7cf" />
<rect x="390" y="30" width="45" height="45" style="fill:#ad7fa8" />
<rect x="450" y="30" width="45" height="45" style="fill:#eeeeec" />
<rect x="30" y="90" width="45" height="45" style="fill:#cc0000" />
<rect x="90" y="90" width="45" height="45" style="fill:#ef2929" />
<rect x="150" y="90" width="45" height="45" style="fill:#c4a000" />
<rect x="210" y="90" width="45" height="45" style="fill:#4e9a06" />
<rect x="270" y="90" width="45" height="45" style="fill:#06989a" />
<rect x="330" y="90" width="45" height="45" style="fill:#3465a4" />
<rect x="390" y="90" width="45" height="45" style="fill:#75507b" />
<rect x="450" y="90" width="45" height="45" style="fill:#34e2e2" />
<rect x="30" y="150" width="45" height="45" style="fill:#191f21" />
<rect x="90" y="150" width="45" height="45" style="fill:#0b1113" />
<rect x="150" y="150" width="45" height="45" style="fill:#fe3621" />
<rect x="210" y="150" width="45" height="45" style="fill:#fbd440" />
<rect x="270" y="150" width="45" height="45" style="fill:#76c738" />
<rect x="330" y="150" width="45" height="45" style="fill:#51c3c5" />
<rect x="390" y="150" width="45" height="45" style="fill:#5585c6" />
<rect x="450" y="150" width="45" height="45" style="fill:#966e9b" />
</svg>