<?xml version="1.0" encoding="UTF-8" ?>
<svg width="525" height="225" xmlns="http://www.w3.org/2000/svg">
<rect x="0" y="0" width="525" height="225" style="fill:#efeae8" />
<rect x="30" y="30" width="45" height="45" style="fill:#efeae8" />
<rect x="90" y="30" width="45" height="45" style="fill:#dfd6d1" />
<rect x="150" y="30" width="45" height="45" style="fill:#d0c1bb" />
<rect x="210" y="30" width="45" height="45" style="fill:#c0aca4" />
<rect x="270" y="30" width="45" height="45" style="fill:#59453d" />
<rect x="330" y="30" width="45" height="45" style="fill:#473731" />
<rect x="390" y="30" width="45" height="45" style="fill:#352a25" />
<rect x="450" y="30" width="45" height="45" style="fill:#241c19" />
<rect x="30" y="90" width="45" height="45" style="fill:#a75045" />
<rect x="90" y="90" width="45" height="45" style="fill:#bd6942" />
<rect x="150" y="90" width="45" height="45" style="fill:#ce943e" />
<rect x="210" y="90" width="45" height="45" style="fill:#7a894a" />
<rect x="270" y="90" width="45" height="45" style="fill:#847f9e" />
<rect x="330" y="90" width="45" height="45" style="fill:#625574" />
<rect x="390" y="90" width="45" height="45" style="fill:#8d5968" />
<rect x="450" y="90" width="45" height="45" style="fill:#b07158" />
<rect x="30" y="150" width="45" height="45" style="fill:#9d9a98" />
<rect x="90" y="150" width="45" height="45" style="fill:#666462" />
<rect x="150" y="150" width="45" height="45" style="fill:#d27265" />
<rect x="210" y="150" width="45" height="45" style="fill:#ffc66a" />
<rect x="270" y="150" width="45" height="45" style="fill:#a3b36f" />
<rect x="330" y="150" width="45" height="45" style="fill:#aea8c9" />
<rect x="390" y="150" width="45" height="45" style="fill:#807393" />
<rect x="450" y="150" width="45" height="45" style="fill:#b37a8a" />
</svg>