<?xml version="1.0" encoding="UTF-8" ?>
<svg width="525" height="225" xmlns="http://www.w3.org/2000/svg">
<rect x="0" y="0" width="525" height="225" style="fill:#241d1a" />
<rect x="30" y="30" width="45" height="45" style="fill:#241d1a" />
<rect x="90" y="30" width="45" height="45" style="fill:#362b27" />
<rect x="150" y="30" width="45" height="45" style="fill:#473933" />
<rect x="210" y="30" width="45" height="45" style="fill:#594740" />
<rect x="270" y="30" width="45" height="45" style="fill:#a78e84" />
<rect x="330" y="30" width="45" height="45" style="fill:#b8a59d" />
<rect x="390" y="30" width="45" height="45" style="fill:#cabbb5" />
<rect x="450" y="30" width="45" height="45" style="fill:#dcd2ce" />
<rect x="30" y="90" width="45" height="45" style="fill:#f6998f" />
<rect x="90" y="90" width="45" height="45" style="fill:#ffa888" />
<rect x="150" y="90" width="45" height="45" style="fill:#ffc37a" />
<rect x="210" y="90" width="45" height="45" style="fill:#b6c68a" />
<rect x="270" y="90" width="45" height="45" style="fill:#c0bcdb" />
<rect x="330" y="90" width="45" height="45" style="fill:#b0a4c3" />
<rect x="390" y="90" width="45" height="45" style="fill:#d8a2b0" />
<rect x="450" y="90" width="45" height="45" style="fill:#f1ae97" />
<rect x="30" y="150" width="45" height="45" style="fill:#110b08" />
<rect x="90" y="150" width="45" height="45" style="fill:#060201" />
<rect x="150" y="150" width="45" height="45" style="fill:#ffddd1" />
<rect x="210" y="150" width="45" height="45" style="fill:#fff0a2" />
<rect x="270" y="150" width="45" height="45" style="fill:#f6ffc5" />
<rect x="330" y="150" width="45" height="45" style="fill:#fffbff" />
<rect x="390" y="150" width="45" height="45" style="fill:#f3e5ff" />
<rect x="450" y="150" width="45" height="45" style="fill:#ffe6f4" />
</svg>