<?xml version="1.0" encoding="UTF-8" ?>
<svg width="525" height="225" xmlns="http://www.w3.org/2000/svg">
<rect x="0" y="0" width="525" height="225" style="fill:#D5D6DB" />
<rect x="30" y="30" width="45" height="45" style="fill:#D5D6DB" />
<rect x="90" y="30" width="45" height="45" style="fill:#CBCCD1" />
<rect x="150" y="30" width="45" height="45" style="fill:#DFE0E5" />
<rect x="210" y="30" width="45" height="45" style="fill:#9699A3" />
<rect x="270" y="30" width="45" height="45" style="fill:#4C505E" />
<rect x="330" y="30" width="45" height="45" style="fill:#343B59" />
<rect x="390" y="30" width="45" height="45" style="fill:#1A1B26" />
<rect x="450" y="30" width="45" height="45" style="fill:#1A1B26" />
<rect x="30" y="90" width="45" height="45" style="fill:#343B58" />
<rect x="90" y="90" width="45" height="45" style="fill:#965027" />
<rect x="150" y="90" width="45" height="45" style="fill:#166775" />
<rect x="210" y="90" width="45" height="45" style="fill:#485E30" />
<rect x="270" y="90" width="45" height="45" style="fill:#3E6968" />
<rect x="330" y="90" width="45" height="45" style="fill:#34548A" />
<rect x="390" y="90" width="45" height="45" style="fill:#5A4A78" />
<rect x="450" y="90" width="45" height="45" style="fill:#8C4351" />
<rect x="30" y="150" width="45" height="45" style="fill:#fefeff" />
<rect x="90" y="150" width="45" height="45" style="fill:#fefeff" />
<rect x="150" y="150" width="45" height="45" style="fill:#4e5573" />
<rect x="210" y="150" width="45" height="45" style="fill:#468d9b" />
<rect x="270" y="150" width="45" height="45" style="fill:#6a8250" />
<rect x="330" y="150" width="45" height="45" style="fill:#65908f" />
<rect x="390" y="150" width="45" height="45" style="fill:#5677ae" />
<rect x="450" y="150" width="45" height="45" style="fill:#7c6c9c" />
</svg>