<?xml version="1.0" encoding="UTF-8" ?>
<svg width="525" height="225" xmlns="http://www.w3.org/2000/svg">
<rect x="0" y="0" width="525" height="225" style="fill:#171D23" />
<rect x="30" y="30" width="45" height="45" style="fill:#171D23" />
<rect x="90" y="30" width="45" height="45" style="fill:#1D252C" />
<rect x="150" y="30" width="45" height="45" style="fill:#28323A" />
<rect x="210" y="30" width="45" height="45" style="fill:#526270" />
<rect x="270" y="30" width="45" height="45" style="fill:#B7C5D3" />
<rect x="330" y="30" width="45" height="45" style="fill:#D8E2EC" />
<rect x="390" y="30" width="45" height="45" style="fill:#F6F6F8" />
<rect x="450" y="30" width="45" height="45" style="fill:#FBFBFD" />
<rect x="30" y="90" width="45" height="45" style="fill:#F7768E" />
<rect x="90" y="90" width="45" height="45" style="fill:#FF9E64" />
<rect x="150" y="90" width="45" height="45" style="fill:#B7C5D3" />
<rect x="210" y="90" width="45" height="45" style="fill:#9ECE6A" />
<rect x="270" y="90" width="45" height="45" style="fill:#89DDFF" />
<rect x="330" y="90" width="45" height="45" style="fill:#7AA2F7" />
<rect x="390" y="90" width="45" height="45" style="fill:#BB9AF7" />
<rect x="450" y="90" width="45" height="45" style="fill:#BB9AF7" />
<rect x="30" y="150" width="45" height="45" style="fill:#060b11" />
<rect x="90" y="150" width="45" height="45" style="fill:#000307" />
<rect x="150" y="150" width="45" height="45" style="fill:#ffb3cc" />
<rect x="210" y="150" width="45" height="45" style="fill:#f3ffff" />
<rect x="270" y="150" width="45" height="45" style="fill:#ddffa4" />
<rect x="330" y="150" width="45" height="45" style="fill:#baffff" />
<rect x="390" y="150" width="45" height="45" style="fill:#b8e1ff" />
<rect x="450" y="150" width="45" height="45" style="fill:#fedcff" />
</svg>