<?xml version="1.0" encoding="UTF-8" ?>
<svg width="525" height="225" xmlns="http://www.w3.org/2000/svg">
<rect x="0" y="0" width="525" height="225" style="fill:#FBFBFD" />
<rect x="30" y="30" width="45" height="45" style="fill:#FBFBFD" />
<rect x="90" y="30" width="45" height="45" style="fill:#F6F6F8" />
<rect x="150" y="30" width="45" height="45" style="fill:#EDEFF6" />
<rect x="210" y="30" width="45" height="45" style="fill:#9699A3" />
<rect x="270" y="30" width="45" height="45" style="fill:#4c505e" />
<rect x="330" y="30" width="45" height="45" style="fill:#343B59" />
<rect x="390" y="30" width="45" height="45" style="fill:#1D252C" />
<rect x="450" y="30" width="45" height="45" style="fill:#171D23" />
<rect x="30" y="90" width="45" height="45" style="fill:#8C4351" />
<rect x="90" y="90" width="45" height="45" style="fill:#965027" />
<rect x="150" y="90" width="45" height="45" style="fill:#4C505E" />
<rect x="210" y="90" width="45" height="45" style="fill:#485E30" />
<rect x="270" y="90" width="45" height="45" style="fill:#4C505E" />
<rect x="330" y="90" width="45" height="45" style="fill:#34548a" />
<rect x="390" y="90" width="45" height="45" style="fill:#5A4A78" />
<rect x="450" y="90" width="45" height="45" style="fill:#5A4A78" />
<rect x="30" y="150" width="45" height="45" style="fill:#a5a6a8" />
<rect x="90" y="150" width="45" height="45" style="fill:#6a6c6e" />
<rect x="150" y="150" width="45" height="45" style="fill:#b0606e" />
<rect x="210" y="150" width="45" height="45" style="fill:#676b79" />
<rect x="270" y="150" width="45" height="45" style="fill:#647b4a" />
<rect x="330" y="150" width="45" height="45" style="fill:#676b79" />
<rect x="390" y="150" width="45" height="45" style="fill:#5070a7" />
<rect x="450" y="150" width="45" height="45" style="fill:#766595" />
</svg>