<?xml version="1.0" encoding="UTF-8" ?>
<svg width="525" height="225" xmlns="http://www.w3.org/2000/svg">
<rect x="0" y="0" width="525" height="225" style="fill:#D5D6DB" />
<rect x="30" y="30" width="45" height="45" style="fill:#D5D6DB" />
<rect x="90" y="30" width="45" height="45" style="fill:#CBCCD1" />
<rect x="150" y="30" width="45" height="45" style="fill:#DFE0E5" />
<rect x="210" y="30" width="45" height="45" style="fill:#9699A3" />
<rect x="270" y="30" width="45" height="45" style="fill:#4C505E" />
<rect x="330" y="30" width="45" height="45" style="fill:#4C505E" />
<rect x="390" y="30" width="45" height="45" style="fill:#1A1B26" />
<rect x="450" y="30" width="45" height="45" style="fill:#1A1B26" />
<rect x="30" y="90" width="45" height="45" style="fill:#8C4351" />
<rect x="90" y="90" width="45" height="45" style="fill:#965027" />
<rect x="150" y="90" width="45" height="45" style="fill:#8F5E15" />
<rect x="210" y="90" width="45" height="45" style="fill:#33635C" />
<rect x="270" y="90" width="45" height="45" style="fill:#0F4B6E" />
<rect x="330" y="90" width="45" height="45" style="fill:#34548A" />
<rect x="390" y="90" width="45" height="45" style="fill:#5A4A78" />
<rect x="450" y="90" width="45" height="45" style="fill:#655259" />
<rect x="30" y="150" width="45" height="45" style="fill:#fefeff" />
<rect x="90" y="150" width="45" height="45" style="fill:#fefeff" />
<rect x="150" y="150" width="45" height="45" style="fill:#b96876" />
<rect x="210" y="150" width="45" height="45" style="fill:#bf883b" />
<rect x="270" y="150" width="45" height="45" style="fill:#588880" />
<rect x="330" y="150" width="45" height="45" style="fill:#35698d" />
<rect x="390" y="150" width="45" height="45" style="fill:#5677ae" />
<rect x="450" y="150" width="45" height="45" style="fill:#7c6c9c" />
</svg>