<?xml version="1.0" encoding="UTF-8" ?>
<svg width="525" height="225" xmlns="http://www.w3.org/2000/svg">
<rect x="0" y="0" width="525" height="225" style="fill:#11121d" />
<rect x="30" y="30" width="45" height="45" style="fill:#11121d" />
<rect x="90" y="30" width="45" height="45" style="fill:#1A1B2A" />
<rect x="150" y="30" width="45" height="45" style="fill:#212234" />
<rect x="210" y="30" width="45" height="45" style="fill:#282c34" />
<rect x="270" y="30" width="45" height="45" style="fill:#4a5057" />
<rect x="330" y="30" width="45" height="45" style="fill:#a0a8cd" />
<rect x="390" y="30" width="45" height="45" style="fill:#a0a8cd" />
<rect x="450" y="30" width="45" height="45" style="fill:#a0a8cd" />
<rect x="30" y="90" width="45" height="45" style="fill:#ee6d85" />
<rect x="90" y="90" width="45" height="45" style="fill:#f6955b" />
<rect x="150" y="90" width="45" height="45" style="fill:#d7a65f" />
<rect x="210" y="90" width="45" height="45" style="fill:#95c561" />
<rect x="270" y="90" width="45" height="45" style="fill:#38a89d" />
<rect x="330" y="90" width="45" height="45" style="fill:#7199ee" />
<rect x="390" y="90" width="45" height="45" style="fill:#a485dd" />
<rect x="450" y="90" width="45" height="45" style="fill:#773440" />
<rect x="30" y="150" width="45" height="45" style="fill:#060712" />
<rect x="90" y="150" width="45" height="45" style="fill:#02020b" />
<rect x="150" y="150" width="45" height="45" style="fill:#ff9cb4" />
<rect x="210" y="150" width="45" height="45" style="fill:#ffdc8f" />
<rect x="270" y="150" width="45" height="45" style="fill:#cbff93" />
<rect x="330" y="150" width="45" height="45" style="fill:#6fd8cc" />
<rect x="390" y="150" width="45" height="45" style="fill:#a0c9ff" />
<rect x="450" y="150" width="45" height="45" style="fill:#d4b4ff" />
</svg>