<?xml version="1.0" encoding="UTF-8" ?>
<svg width="525" height="225" xmlns="http://www.w3.org/2000/svg">
<rect x="0" y="0" width="525" height="225" style="fill:#FBFBFD" />
<rect x="30" y="30" width="45" height="45" style="fill:#FBFBFD" />
<rect x="90" y="30" width="45" height="45" style="fill:#F6F6F8" />
<rect x="150" y="30" width="45" height="45" style="fill:#D8E2EC" />
<rect x="210" y="30" width="45" height="45" style="fill:#B7C5D3" />
<rect x="270" y="30" width="45" height="45" style="fill:#526270" />
<rect x="330" y="30" width="45" height="45" style="fill:#28323A" />
<rect x="390" y="30" width="45" height="45" style="fill:#1D252C" />
<rect x="450" y="30" width="45" height="45" style="fill:#171D23" />
<rect x="30" y="90" width="45" height="45" style="fill:#8C4351" />
<rect x="90" y="90" width="45" height="45" style="fill:#965027" />
<rect x="150" y="90" width="45" height="45" style="fill:#8f5E15" />
<rect x="210" y="90" width="45" height="45" style="fill:#33635C" />
<rect x="270" y="90" width="45" height="45" style="fill:#0F4B6E" />
<rect x="330" y="90" width="45" height="45" style="fill:#34548A" />
<rect x="390" y="90" width="45" height="45" style="fill:#5A4A78" />
<rect x="450" y="90" width="45" height="45" style="fill:#7E5140" />
<rect x="30" y="150" width="45" height="45" style="fill:#a5a6a8" />
<rect x="90" y="150" width="45" height="45" style="fill:#6a6c6e" />
<rect x="150" y="150" width="45" height="45" style="fill:#b0606e" />
<rect x="210" y="150" width="45" height="45" style="fill:#b68034" />
<rect x="270" y="150" width="45" height="45" style="fill:#518179" />
<rect x="330" y="150" width="45" height="45" style="fill:#2e6387" />
<rect x="390" y="150" width="45" height="45" style="fill:#5070a7" />
<rect x="450" y="150" width="45" height="45" style="fill:#766595" />
</svg>