<?xml version="1.0" encoding="UTF-8" ?>
<svg width="525" height="225" xmlns="http://www.w3.org/2000/svg">
<rect x="0" y="0" width="525" height="225" style="fill:#1d1f21" />
<rect x="30" y="30" width="45" height="45" style="fill:#1d1f21" />
<rect x="90" y="30" width="45" height="45" style="fill:#282a2e" />
<rect x="150" y="30" width="45" height="45" style="fill:#373b41" />
<rect x="210" y="30" width="45" height="45" style="fill:#969896" />
<rect x="270" y="30" width="45" height="45" style="fill:#b4b7b4" />
<rect x="330" y="30" width="45" height="45" style="fill:#c5c8c6" />
<rect x="390" y="30" width="45" height="45" style="fill:#e0e0e0" />
<rect x="450" y="30" width="45" height="45" style="fill:#ffffff" />
<rect x="30" y="90" width="45" height="45" style="fill:#cc6666" />
<rect x="90" y="90" width="45" height="45" style="fill:#de935f" />
<rect x="150" y="90" width="45" height="45" style="fill:#f0c674" />
<rect x="210" y="90" width="45" height="45" style="fill:#b5bd68" />
<rect x="270" y="90" width="45" height="45" style="fill:#8abeb7" />
<rect x="330" y="90" width="45" height="45" style="fill:#81a2be" />
<rect x="390" y="90" width="45" height="45" style="fill:#b294bb" />
<rect x="450" y="90" width="45" height="45" style="fill:#a3685a" />
<rect x="30" y="150" width="45" height="45" style="fill:#0a0c0e" />
<rect x="90" y="150" width="45" height="45" style="fill:#020304" />
<rect x="150" y="150" width="45" height="45" style="fill:#ff9a98" />
<rect x="210" y="150" width="45" height="45" style="fill:#fff69f" />
<rect x="270" y="150" width="45" height="45" style="fill:#fbffa7" />
<rect x="330" y="150" width="45" height="45" style="fill:#cefffc" />
<rect x="390" y="150" width="45" height="45" style="fill:#bddffd" />
<rect x="450" y="150" width="45" height="45" style="fill:#f2d1fb" />
</svg>