<?xml version="1.0" encoding="UTF-8" ?>
<svg width="525" height="225" xmlns="http://www.w3.org/2000/svg">
<rect x="0" y="0" width="525" height="225" style="fill:#ffffff" />
<rect x="30" y="30" width="45" height="45" style="fill:#ffffff" />
<rect x="90" y="30" width="45" height="45" style="fill:#e0e0e0" />
<rect x="150" y="30" width="45" height="45" style="fill:#d6d6d6" />
<rect x="210" y="30" width="45" height="45" style="fill:#8e908c" />
<rect x="270" y="30" width="45" height="45" style="fill:#969896" />
<rect x="330" y="30" width="45" height="45" style="fill:#4d4d4c" />
<rect x="390" y="30" width="45" height="45" style="fill:#282a2e" />
<rect x="450" y="30" width="45" height="45" style="fill:#1d1f21" />
<rect x="30" y="90" width="45" height="45" style="fill:#c82829" />
<rect x="90" y="90" width="45" height="45" style="fill:#f5871f" />
<rect x="150" y="90" width="45" height="45" style="fill:#eab700" />
<rect x="210" y="90" width="45" height="45" style="fill:#718c00" />
<rect x="270" y="90" width="45" height="45" style="fill:#3e999f" />
<rect x="330" y="90" width="45" height="45" style="fill:#4271ae" />
<rect x="390" y="90" width="45" height="45" style="fill:#8959a8" />
<rect x="450" y="90" width="45" height="45" style="fill:#a3685a" />
<rect x="30" y="150" width="45" height="45" style="fill:#ffffff" />
<rect x="90" y="150" width="45" height="45" style="fill:#ffffff" />
<rect x="150" y="150" width="45" height="45" style="fill:#ff564e" />
<rect x="210" y="150" width="45" height="45" style="fill:#fff54f" />
<rect x="270" y="150" width="45" height="45" style="fill:#a2c13c" />
<rect x="330" y="150" width="45" height="45" style="fill:#79d0d6" />
<rect x="390" y="150" width="45" height="45" style="fill:#6f9ddd" />
<rect x="450" y="150" width="45" height="45" style="fill:#b785d7" />
</svg>