<?xml version="1.0" encoding="UTF-8" ?>
<svg width="525" height="225" xmlns="http://www.w3.org/2000/svg">
<rect x="0" y="0" width="525" height="225" style="fill:#231f20" />
<rect x="30" y="30" width="45" height="45" style="fill:#231f20" />
<rect x="90" y="30" width="45" height="45" style="fill:#1c3f95" />
<rect x="150" y="30" width="45" height="45" style="fill:#5a5758" />
<rect x="210" y="30" width="45" height="45" style="fill:#737171" />
<rect x="270" y="30" width="45" height="45" style="fill:#959ca1" />
<rect x="330" y="30" width="45" height="45" style="fill:#d9d8d8" />
<rect x="390" y="30" width="45" height="45" style="fill:#e7e7e8" />
<rect x="450" y="30" width="45" height="45" style="fill:#ffffff" />
<rect x="30" y="90" width="45" height="45" style="fill:#ee2e24" />
<rect x="90" y="90" width="45" height="45" style="fill:#f386a1" />
<rect x="150" y="90" width="45" height="45" style="fill:#ffd204" />
<rect x="210" y="90" width="45" height="45" style="fill:#00853e" />
<rect x="270" y="90" width="45" height="45" style="fill:#85cebc" />
<rect x="330" y="90" width="45" height="45" style="fill:#009ddc" />
<rect x="390" y="90" width="45" height="45" style="fill:#98005d" />
<rect x="450" y="90" width="45" height="45" style="fill:#b06110" />
<rect x="30" y="150" width="45" height="45" style="fill:#131011" />
<rect x="90" y="150" width="45" height="45" style="fill:#080607" />
<rect x="150" y="150" width="45" height="45" style="fill:#ff5a46" />
<rect x="210" y="150" width="45" height="45" style="fill:#fff93d" />
<rect x="270" y="150" width="45" height="45" style="fill:#3eab5f" />
<rect x="330" y="150" width="45" height="45" style="fill:#bffff6" />
<rect x="390" y="150" width="45" height="45" style="fill:#57cbff" />
<rect x="450" y="150" width="45" height="45" style="fill:#bc2d79" />
</svg>