<?xml version="1.0" encoding="UTF-8" ?>
<svg width="525" height="225" xmlns="http://www.w3.org/2000/svg">
<rect x="0" y="0" width="525" height="225" style="fill:#1e1e1e" />
<rect x="30" y="30" width="45" height="45" style="fill:#1e1e1e" />
<rect x="90" y="30" width="45" height="45" style="fill:#323537" />
<rect x="150" y="30" width="45" height="45" style="fill:#464b50" />
<rect x="210" y="30" width="45" height="45" style="fill:#5f5a60" />
<rect x="270" y="30" width="45" height="45" style="fill:#838184" />
<rect x="330" y="30" width="45" height="45" style="fill:#a7a7a7" />
<rect x="390" y="30" width="45" height="45" style="fill:#c3c3c3" />
<rect x="450" y="30" width="45" height="45" style="fill:#ffffff" />
<rect x="30" y="90" width="45" height="45" style="fill:#cf6a4c" />
<rect x="90" y="90" width="45" height="45" style="fill:#cda869" />
<rect x="150" y="90" width="45" height="45" style="fill:#f9ee98" />
<rect x="210" y="90" width="45" height="45" style="fill:#8f9d6a" />
<rect x="270" y="90" width="45" height="45" style="fill:#afc4db" />
<rect x="330" y="90" width="45" height="45" style="fill:#7587a6" />
<rect x="390" y="90" width="45" height="45" style="fill:#9b859d" />
<rect x="450" y="90" width="45" height="45" style="fill:#9b703f" />
<rect x="30" y="150" width="45" height="45" style="fill:#0c0c0c" />
<rect x="90" y="150" width="45" height="45" style="fill:#030303" />
<rect x="150" y="150" width="45" height="45" style="fill:#ff9e7c" />
<rect x="210" y="150" width="45" height="45" style="fill:#ffffa8" />
<rect x="270" y="150" width="45" height="45" style="fill:#c9d8a0" />
<rect x="330" y="150" width="45" height="45" style="fill:#edffff" />
<rect x="390" y="150" width="45" height="45" style="fill:#a9bbdc" />
<rect x="450" y="150" width="45" height="45" style="fill:#d4bbd5" />
</svg>