<?xml version="1.0" encoding="UTF-8" ?>
<svg width="525" height="225" xmlns="http://www.w3.org/2000/svg">
<rect x="0" y="0" width="525" height="225" style="fill:#241b26" />
<rect x="30" y="30" width="45" height="45" style="fill:#241b26" />
<rect x="90" y="30" width="45" height="45" style="fill:#2f2a3f" />
<rect x="150" y="30" width="45" height="45" style="fill:#46354a" />
<rect x="210" y="30" width="45" height="45" style="fill:#6c3cb2" />
<rect x="270" y="30" width="45" height="45" style="fill:#7e5f83" />
<rect x="330" y="30" width="45" height="45" style="fill:#eed5d9" />
<rect x="390" y="30" width="45" height="45" style="fill:#d9c2c6" />
<rect x="450" y="30" width="45" height="45" style="fill:#e4ccd0" />
<rect x="30" y="90" width="45" height="45" style="fill:#877bb6" />
<rect x="90" y="90" width="45" height="45" style="fill:#de5b44" />
<rect x="150" y="90" width="45" height="45" style="fill:#a84a73" />
<rect x="210" y="90" width="45" height="45" style="fill:#c965bf" />
<rect x="270" y="90" width="45" height="45" style="fill:#9c5fce" />
<rect x="330" y="90" width="45" height="45" style="fill:#6a9eb5" />
<rect x="390" y="90" width="45" height="45" style="fill:#78a38f" />
<rect x="450" y="90" width="45" height="45" style="fill:#a3a079" />
<rect x="30" y="150" width="45" height="45" style="fill:#150c17" />
<rect x="90" y="150" width="45" height="45" style="fill:#0b040d" />
<rect x="150" y="150" width="45" height="45" style="fill:#b1a4e2" />
<rect x="210" y="150" width="45" height="45" style="fill:#d26d97" />
<rect x="270" y="150" width="45" height="45" style="fill:#fc92ef" />
<rect x="330" y="150" width="45" height="45" style="fill:#c588f9" />
<rect x="390" y="150" width="45" height="45" style="fill:#99cde5" />
<rect x="450" y="150" width="45" height="45" style="fill:#a7d3be" />
</svg>