<?xml version="1.0" encoding="UTF-8" ?>
<svg width="525" height="225" xmlns="http://www.w3.org/2000/svg">
<rect x="0" y="0" width="525" height="225" style="fill:#101010" />
<rect x="30" y="30" width="45" height="45" style="fill:#101010" />
<rect x="90" y="30" width="45" height="45" style="fill:#232323" />
<rect x="150" y="30" width="45" height="45" style="fill:#222222" />
<rect x="210" y="30" width="45" height="45" style="fill:#333333" />
<rect x="270" y="30" width="45" height="45" style="fill:#999999" />
<rect x="330" y="30" width="45" height="45" style="fill:#b7b7b7" />
<rect x="390" y="30" width="45" height="45" style="fill:#c1c1c1" />
<rect x="450" y="30" width="45" height="45" style="fill:#d5d5d5" />
<rect x="30" y="90" width="45" height="45" style="fill:#de6e6e" />
<rect x="90" y="90" width="45" height="45" style="fill:#dab083" />
<rect x="150" y="90" width="45" height="45" style="fill:#ffc799" />
<rect x="210" y="90" width="45" height="45" style="fill:#5f8787" />
<rect x="270" y="90" width="45" height="45" style="fill:#60a592" />
<rect x="330" y="90" width="45" height="45" style="fill:#8eaaaa" />
<rect x="390" y="90" width="45" height="45" style="fill:#d69094" />
<rect x="450" y="90" width="45" height="45" style="fill:#876c4f" />
<rect x="30" y="150" width="45" height="45" style="fill:#040404" />
<rect x="90" y="150" width="45" height="45" style="fill:#010101" />
<rect x="150" y="150" width="45" height="45" style="fill:#ffa6a4" />
<rect x="210" y="150" width="45" height="45" style="fill:#fff0bf" />
<rect x="270" y="150" width="45" height="45" style="fill:#90b9b9" />
<rect x="330" y="150" width="45" height="45" style="fill:#9ae0cc" />
<rect x="390" y="150" width="45" height="45" style="fill:#cdeae9" />
<rect x="450" y="150" width="45" height="45" style="fill:#ffced2" />
</svg>