<?xml version="1.0" encoding="UTF-8" ?>
<svg width="525" height="225" xmlns="http://www.w3.org/2000/svg">
<rect x="0" y="0" width="525" height="225" style="fill:#ffffff" />
<rect x="30" y="30" width="45" height="45" style="fill:#ffffff" />
<rect x="90" y="30" width="45" height="45" style="fill:#eaeaea" />
<rect x="150" y="30" width="45" height="45" style="fill:#d5d5d5" />
<rect x="210" y="30" width="45" height="45" style="fill:#c0c0c0" />
<rect x="270" y="30" width="45" height="45" style="fill:#a0a0a0" />
<rect x="330" y="30" width="45" height="45" style="fill:#808080" />
<rect x="390" y="30" width="45" height="45" style="fill:#404040" />
<rect x="450" y="30" width="45" height="45" style="fill:#000000" />
<rect x="30" y="90" width="45" height="45" style="fill:#800000" />
<rect x="90" y="90" width="45" height="45" style="fill:#ffff00" />
<rect x="150" y="90" width="45" height="45" style="fill:#808000" />
<rect x="210" y="90" width="45" height="45" style="fill:#008000" />
<rect x="270" y="90" width="45" height="45" style="fill:#008080" />
<rect x="330" y="90" width="45" height="45" style="fill:#000080" />
<rect x="390" y="90" width="45" height="45" style="fill:#800080" />
<rect x="450" y="90" width="45" height="45" style="fill:#00ff00" />
<rect x="30" y="150" width="45" height="45" style="fill:#909191" />
<rect x="90" y="150" width="45" height="45" style="fill:#4e5050" />
<rect x="150" y="150" width="45" height="45" style="fill:#a82515" />
<rect x="210" y="150" width="45" height="45" style="fill:#b1b238" />
<rect x="270" y="150" width="45" height="45" style="fill:#40ae32" />
<rect x="330" y="150" width="45" height="45" style="fill:#4caead" />
<rect x="390" y="150" width="45" height="45" style="fill:#002289" />
<rect x="450" y="150" width="45" height="45" style="fill:#a534a2" />
</svg>