<?xml version="1.0" encoding="UTF-8" ?>
<svg width="525" height="225" xmlns="http://www.w3.org/2000/svg">
<rect x="0" y="0" width="525" height="225" style="fill:#000000" />
<rect x="30" y="30" width="45" height="45" style="fill:#000000" />
<rect x="90" y="30" width="45" height="45" style="fill:#2a2a2a" />
<rect x="150" y="30" width="45" height="45" style="fill:#555555" />
<rect x="210" y="30" width="45" height="45" style="fill:#808080" />
<rect x="270" y="30" width="45" height="45" style="fill:#a1a1a1" />
<rect x="330" y="30" width="45" height="45" style="fill:#c0c0c0" />
<rect x="390" y="30" width="45" height="45" style="fill:#e0e0e0" />
<rect x="450" y="30" width="45" height="45" style="fill:#ffffff" />
<rect x="30" y="90" width="45" height="45" style="fill:#ff0000" />
<rect x="90" y="90" width="45" height="45" style="fill:#808000" />
<rect x="150" y="90" width="45" height="45" style="fill:#ffff00" />
<rect x="210" y="90" width="45" height="45" style="fill:#00ff00" />
<rect x="270" y="90" width="45" height="45" style="fill:#00ffff" />
<rect x="330" y="90" width="45" height="45" style="fill:#0000ff" />
<rect x="390" y="90" width="45" height="45" style="fill:#ff00ff" />
<rect x="450" y="90" width="45" height="45" style="fill:#008000" />
<rect x="30" y="150" width="45" height="45" style="fill:#000000" />
<rect x="90" y="150" width="45" height="45" style="fill:#000000" />
<rect x="150" y="150" width="45" height="45" style="fill:#ff5234" />
<rect x="210" y="150" width="45" height="45" style="fill:#ffff19" />
<rect x="270" y="150" width="45" height="45" style="fill:#58ff44" />
<rect x="330" y="150" width="45" height="45" style="fill:#57ffff" />
<rect x="390" y="150" width="45" height="45" style="fill:#004eff" />
<rect x="450" y="150" width="45" height="45" style="fill:#ff6eff" />
</svg>