<?xml version="1.0" encoding="UTF-8" ?>
<svg width="525" height="225" xmlns="http://www.w3.org/2000/svg">
<rect x="0" y="0" width="525" height="225" style="fill:#fcfcfc" />
<rect x="30" y="30" width="45" height="45" style="fill:#fcfcfc" />
<rect x="90" y="30" width="45" height="45" style="fill:#e8e8e8" />
<rect x="150" y="30" width="45" height="45" style="fill:#d4d4d4" />
<rect x="210" y="30" width="45" height="45" style="fill:#c0c0c0" />
<rect x="270" y="30" width="45" height="45" style="fill:#7e7e7e" />
<rect x="330" y="30" width="45" height="45" style="fill:#545454" />
<rect x="390" y="30" width="45" height="45" style="fill:#2a2a2a" />
<rect x="450" y="30" width="45" height="45" style="fill:#000000" />
<rect x="30" y="90" width="45" height="45" style="fill:#800000" />
<rect x="90" y="90" width="45" height="45" style="fill:#fcfc54" />
<rect x="150" y="90" width="45" height="45" style="fill:#808000" />
<rect x="210" y="90" width="45" height="45" style="fill:#008000" />
<rect x="270" y="90" width="45" height="45" style="fill:#008080" />
<rect x="330" y="90" width="45" height="45" style="fill:#000080" />
<rect x="390" y="90" width="45" height="45" style="fill:#800080" />
<rect x="450" y="90" width="45" height="45" style="fill:#54fc54" />
<rect x="30" y="150" width="45" height="45" style="fill:#a5a6a6" />
<rect x="90" y="150" width="45" height="45" style="fill:#6b6c6c" />
<rect x="150" y="150" width="45" height="45" style="fill:#a01f11" />
<rect x="210" y="150" width="45" height="45" style="fill:#a7a82f" />
<rect x="270" y="150" width="45" height="45" style="fill:#37a52a" />
<rect x="330" y="150" width="45" height="45" style="fill:#42a5a4" />
<rect x="390" y="150" width="45" height="45" style="fill:#001e87" />
<rect x="450" y="150" width="45" height="45" style="fill:#9e2c9b" />
</svg>