<?xml version="1.0" encoding="UTF-8" ?>
<svg width="525" height="225" xmlns="http://www.w3.org/2000/svg">
<rect x="0" y="0" width="525" height="225" style="fill:#f2f2f2" />
<rect x="30" y="30" width="45" height="45" style="fill:#f2f2f2" />
<rect x="90" y="30" width="45" height="45" style="fill:#e5e5e5" />
<rect x="150" y="30" width="45" height="45" style="fill:#d9d9d9" />
<rect x="210" y="30" width="45" height="45" style="fill:#cccccc" />
<rect x="270" y="30" width="45" height="45" style="fill:#ababab" />
<rect x="330" y="30" width="45" height="45" style="fill:#767676" />
<rect x="390" y="30" width="45" height="45" style="fill:#414141" />
<rect x="450" y="30" width="45" height="45" style="fill:#0c0c0c" />
<rect x="30" y="90" width="45" height="45" style="fill:#c50f1f" />
<rect x="90" y="90" width="45" height="45" style="fill:#f9f1a5" />
<rect x="150" y="90" width="45" height="45" style="fill:#c19c00" />
<rect x="210" y="90" width="45" height="45" style="fill:#13a10e" />
<rect x="270" y="90" width="45" height="45" style="fill:#3a96dd" />
<rect x="330" y="90" width="45" height="45" style="fill:#0037da" />
<rect x="390" y="90" width="45" height="45" style="fill:#881798" />
<rect x="450" y="90" width="45" height="45" style="fill:#16c60c" />
<rect x="30" y="150" width="45" height="45" style="fill:#fffefe" />
<rect x="90" y="150" width="45" height="45" style="fill:#fffefe" />
<rect x="150" y="150" width="45" height="45" style="fill:#ff4442" />
<rect x="210" y="150" width="45" height="45" style="fill:#ffdb4a" />
<rect x="270" y="150" width="45" height="45" style="fill:#58da47" />
<rect x="330" y="150" width="45" height="45" style="fill:#79ceff" />
<rect x="390" y="150" width="45" height="45" style="fill:#2560f6" />
<rect x="450" y="150" width="45" height="45" style="fill:#b045be" />
</svg>