<?xml version="1.0" encoding="UTF-8" ?>
<svg width="525" height="225" xmlns="http://www.w3.org/2000/svg">
<rect x="0" y="0" width="525" height="225" style="fill:#fcfcfc" />
<rect x="30" y="30" width="45" height="45" style="fill:#fcfcfc" />
<rect x="90" y="30" width="45" height="45" style="fill:#e0e0e0" />
<rect x="150" y="30" width="45" height="45" style="fill:#c4c4c4" />
<rect x="210" y="30" width="45" height="45" style="fill:#a8a8a8" />
<rect x="270" y="30" width="45" height="45" style="fill:#7e7e7e" />
<rect x="330" y="30" width="45" height="45" style="fill:#545454" />
<rect x="390" y="30" width="45" height="45" style="fill:#2a2a2a" />
<rect x="450" y="30" width="45" height="45" style="fill:#000000" />
<rect x="30" y="90" width="45" height="45" style="fill:#a80000" />
<rect x="90" y="90" width="45" height="45" style="fill:#fcfc54" />
<rect x="150" y="90" width="45" height="45" style="fill:#a85400" />
<rect x="210" y="90" width="45" height="45" style="fill:#00a800" />
<rect x="270" y="90" width="45" height="45" style="fill:#00a8a8" />
<rect x="330" y="90" width="45" height="45" style="fill:#0000a8" />
<rect x="390" y="90" width="45" height="45" style="fill:#a800a8" />
<rect x="450" y="90" width="45" height="45" style="fill:#54fc54" />
<rect x="30" y="150" width="45" height="45" style="fill:#a5a6a6" />
<rect x="90" y="150" width="45" height="45" style="fill:#6b6c6c" />
<rect x="150" y="150" width="45" height="45" style="fill:#d22b19" />
<rect x="210" y="150" width="45" height="45" style="fill:#d47626" />
<rect x="270" y="150" width="45" height="45" style="fill:#4bd83a" />
<rect x="330" y="150" width="45" height="45" style="fill:#58d7d7" />
<rect x="390" y="150" width="45" height="45" style="fill:#002ab1" />
<rect x="450" y="150" width="45" height="45" style="fill:#cf3ccb" />
</svg>